<?xml version="1.0" encoding="utf-8"?>
<!-- Generator: Adobe Illustrator 19.0.0, SVG Export Plug-In . SVG Version: 6.00 Build 0)  -->
<svg version="1.1" id="Layer_1" xmlns="http://www.w3.org/2000/svg" xmlns:xlink="http://www.w3.org/1999/xlink" x="0px" y="0px"
	 viewBox="0 0 324.6 400" style="enable-background:new 0 0 324.6 400;" xml:space="preserve">
<style type="text/css">
	.st0{fill:#7C7C7C;}
	.st1{fill:#ACABAD;}
	.st2{fill:#C7C7C7;}
	.st3{fill:#BF2033;}
	.st4{fill:#FEFEFE;}
	.st5{fill:#012767;}
</style>
<g>
	<path class="st0" d="M284.1,286.5c-0.1,0.1-0.2,0.2-0.3,0.4c-0.3,0.1-0.5,0.3-0.7,0.5c-1.1,1.4-2.2,2.8-3.2,4.3
		c-0.7,1.1-1.8,2-2.3,3.2c0,0,0,0,0,0c-0.3,0-0.4,0.2-0.6,0.4c-0.9,1.1-1.8,2.3-2.8,3.4c-0.4,0.5-0.9,0.8-1,1.5
		c0,0.1-0.1,0.1-0.1,0.1c-0.5,0.1-0.7,0.4-0.8,0.9c0,0.1-0.1,0.1-0.1,0.2c-0.6,0.2-1,0.7-1.3,1.2c-2.1,2.6-4.4,5-6.5,7.6
		c-0.7,0.9-1.8,1.5-2.1,2.7c0,0,0,0,0,0c-0.7,0-0.9,0.7-1.3,1.1c-1,1-2.1,1.8-2.6,3.1c0,0,0,0,0,0c-0.7,0.3-1.2,0.7-1.4,1.5
		c0,0,0,0,0,0c-0.8,0.1-1.1,0.9-1.5,1.3c-0.8,0.9-1.9,1.6-2.4,2.7c0,0,0,0,0,0c-0.3,0-0.5,0.1-0.4,0.4c0,0,0,0,0,0
		c-0.4-0.1-0.6,0.2-0.8,0.4c-1.8,2.1-3.9,3.9-5.9,5.9c-3.3,3.3-6.8,6.6-10.3,9.7c-1,0.9-2.2,1.7-2.8,2.9c0,0,0,0,0,0
		c-0.6,0.2-1.1,0.6-1.3,1.2c-0.1,0.1-0.3,0.2-0.4,0.3c-0.3,0-0.5,0.1-0.4,0.4c0,0,0,0,0,0c-0.3,0-0.5,0.1-0.6,0.3
		c-0.9,0.8-1.9,1.5-2.7,2.4c-0.7,0.8-1.9,1.1-2.2,2.2c0,0,0,0,0,0c-0.8,0.2-1.3,0.8-1.7,1.4c0,0,0,0,0,0c-1.2,0.4-1.9,1.4-2.8,2.1
		c-0.4,0.3-1.1,0.5-1.1,1.1c-0.1,0.1-0.3,0.3-0.4,0.4c-0.9,0.4-1.7,0.9-2.2,1.8c-0.1,0.1-0.2,0.2-0.4,0.3c-0.5,0-0.8,0.3-0.9,0.8
		c0,0,0,0,0,0c-1.4,0.6-2.5,1.6-3.4,2.7c0,0,0,0,0,0c-1.1,0.6-2.1,1.2-2.8,2.2c0,0,0,0,0,0c-1.3,0.6-2.5,1.4-3.3,2.6
		c-0.1,0.1-0.2,0.2-0.4,0.3c-0.9,0.3-1.6,0.8-2.2,1.6l0,0c-0.1,0-0.2,0-0.3,0.1c-2.3,1.7-4.6,3.3-6.8,5c-0.9,0.7-2.1,1.1-2.6,2.2
		c0,0-0.1,0.1-0.2,0.1c-0.9,0.3-1.7,0.7-2.2,1.6c-0.1,0.1-0.2,0.2-0.4,0.3c-0.4,0-0.7,0.2-1,0.4c-1.2,1.1-2.7,1.9-4,2.8
		c-0.5,0.4-1.3,0.6-1.5,1.4c0,0-0.1,0.1-0.1,0.1c-0.4-0.1-0.7,0.1-1,0.3c-3.2,2.2-6.3,4.5-9.6,6.5c-0.2,0.1-0.4,0.3-0.5,0.6
		c-0.1,0.1-0.3,0.2-0.4,0.3c-0.2,0-0.5,0-0.6,0.1c-2.4,1.6-4.8,3.1-7.2,4.7c-0.7,0.5-1.6,0.6-2,1.5c0,0-0.1,0.1-0.2,0.1
		c-0.7-0.1-0.5-0.7-0.5-1.1c0-4.5,0-9-0.1-13.5c0-3.5,0-7,0-10.5c0.1-0.2,0.2-0.4,0.4-0.6c0.8-0.5,1.6-1,2.4-1.5
		c1.9-1.2,3.8-2.4,5.7-3.7c1.8-1.2,3.6-2.4,5.4-3.6c1.6-1.1,3.3-2.2,4.9-3.3c1.4-1,2.8-2.1,4.2-3c2.2-1.5,4.2-3.1,6.4-4.6
		c1.3-0.8,2.3-1.9,3.6-2.7c1.2-0.7,2.4-1.5,3.3-2.5c1.5-1.5,3.4-2.4,4.9-3.8c1-0.9,2-1.7,3.1-2.5c1.3-0.9,2.4-2.2,3.7-3.1
		c2.4-1.6,4.4-3.7,6.7-5.4c2.2-1.7,4.1-3.7,6.3-5.5c2.5-2.1,4.8-4.4,7.2-6.7c4.9-4.8,9.9-9.5,14.5-14.5c2.7-2.9,5.3-5.8,7.9-8.7
		c2.4-2.5,4.4-5.3,6.7-7.9c0.7-0.7,1.4-1.4,1.9-2.2c1.2-1.8,2.8-3.4,4-5.3c0.9-1.3,2-2.4,2.9-3.6c1.9-2.6,3.7-5.3,5.5-8
		c1.6-2.4,3.3-4.7,4.8-7.1c1.2-2.1,2.5-4.1,3.8-6.2c1.8-3,3.5-6.1,5.2-9.2c1.3-2.3,2.5-4.8,3.6-7.3c0.4-0.9,1-1.8,1.2-2.7
		c0.2-0.6,0.3-1.1,0.5-1.7c0.9-2.4,2.3-4.7,3.2-7.2c0.7-2.1,1.5-4.3,2.4-6.4c0.5-1.1,0.6-2.4,1-3.5c0.9-2.2,1.4-4.6,2-6.9
		c0.2-0.9,0.2-1.9,0.5-2.8c0.7-2,1.1-4.1,1.1-6.1c0.1-24.5,0.1-49,0.1-73.5c0-0.4-0.1-0.8-0.4-1.1c0.2-0.1,0.5-0.1,0.5-0.4
		c-0.1-1.6,0.3-3.2-0.2-4.8c0.3-0.3,0.2-0.8,0.2-1.2c0-5.5,0-11,0-16.5c0-1,0.1-2.1-0.2-3.1l-0.1-0.1l0-0.1c0.9-0.1,0.5-0.7,0.5-1.1
		c0-15.6,0.1-31.2,0-46.8c0-1.8,0.3-3,1.9-4.1c3-2,5.8-4.4,8.7-6.5c2.9-2.2,5.8-4.4,8.7-6.6c0.3-0.3,0.7-0.7,1.1-0.5
		c0.5,0.2,0.3,0.7,0.3,1.1c0,51.9,0,103.9,0,155.8c0,3.3-0.1,6.5-0.4,9.8c-0.2,2.6-0.7,5.2-1.3,7.8c-0.6,2.6-1.2,5.1-1.9,7.6
		c-0.2,0.7-0.7,1.3-0.4,2.1c0,0.1,0,0.3-0.1,0.4c-0.2,0.1-0.3,0.3-0.3,0.5c-0.9,2.6-1.7,5.3-2.6,7.8c-1.4,3.6-2.8,7.1-4.3,10.6
		c-1.5,3.3-3,6.7-4.7,9.9c-0.2,0.3-0.7,0.6-0.4,1.1c0,0.1-0.1,0.2-0.1,0.4c-0.3,0.1-0.4,0.3-0.5,0.6c-1.2,2.2-2.4,4.5-3.6,6.7
		c-1.7,3-3.5,6.1-5.3,9.1c-1.6,2.7-3.3,5.3-5,7.9c-0.9,1.4-2.1,2.7-2.6,4.2c0,0,0,0,0,0c-1,1.1-2.1,2.2-2.5,3.7
		c0,0.1-0.1,0.1-0.1,0.1c-0.2,0.1-0.4,0.2-0.6,0.4c-1.3,1.8-2.6,3.6-3.9,5.4C284.1,286.1,284.1,286.4,284.1,286.5z"/>
	<path class="st1" d="M70.9,321.4c-0.4-0.1-0.5-0.4-0.6-0.6c0-0.5-0.3-0.8-0.8-0.8c0,0,0,0,0,0c-0.2-0.6-0.4-1.3-1.3-1.2
		c-0.3-0.1-0.4-0.3-0.5-0.6c0-0.6-0.4-0.9-1-1.1c-3.5-3.5-6.8-7.2-10-11c-3.2-3.7-6.4-7.4-9.4-11.3c-2.6-3.3-5.2-6.6-7.6-10
		c-1.3-1.9-2.8-3.7-4.1-5.6c-2.5-3.7-5.1-7.4-7.4-11.2c-2.5-3.9-4.8-7.9-7.1-11.9c-2.2-4-4.4-8-6.3-12.1c-1.2-2.5-2.4-5-3.6-7.6
		c-0.1-0.2-0.1-0.5-0.1-0.7c-0.2-1-0.9-1.9-1.1-2.9c0-0.2-0.3-0.4-0.5-0.4c0-0.3-0.1-0.5-0.1-0.8C9.1,231,9,230.4,8.7,230
		c-0.5-0.6,0-1.6-0.9-1.9c0-0.2,0-0.4,0-0.6c0.2-0.6-0.3-0.9-0.6-1.3c0-0.1,0-0.2,0-0.4c0-0.4-0.1-0.7-0.5-0.9c0-0.1,0-0.3,0-0.4
		c0-0.1,0.2-0.3,0.1-0.4c-0.6-1.1-0.8-2.3-1.2-3.4c-0.3-0.7-0.2-1.7-1-2.2c0-0.2,0-0.4-0.1-0.6c0.1-0.1,0.2-0.3,0.1-0.4
		c-0.5-1.2-0.8-2.6-1.2-3.8c-0.3-1-0.3-2.1-1-2.9c0-0.2,0-0.4,0-0.6c0.1-0.8-0.2-1.4-0.6-2.1c0-0.2,0-0.4,0-0.6
		c-0.3-1.7-0.4-3.5-1-5.1c0-0.3,0-0.5,0-0.8c0-1.1,0.2-2.3-0.5-3.3c-0.2-1.2,0-2.4,0-3.6c0-53.8,0-107.5,0-161.3c0-0.3,0-0.7,0-1
		c0.1,0,0.3,0,0.4,0.1c3.7,2.8,7.5,5.3,11,8.3c1.1,1,2.5,1.7,3.7,2.6c1.7,1.2,3.3,2.6,5,3.8c0.7,0.5,1,1,1,1.8c0,15.7,0,31.4,0,47.1
		c0,0.4-0.2,0.9,0.2,1.2c0,0.1,0,0.3,0,0.4c-0.4,0.3-0.1,0.4,0.2,0.4c0.2,0,0.3,0,0.5,0c-0.2,0.4-0.5,0.7-0.5,1.2
		c0,6.3,0,12.6,0,18.8c0,0.7,0.2,0.8,0.9,0.5c2.5-1.4,5.1-2.5,7.7-3.7c5-2.2,10.1-3.9,15.3-5.4c0.7-0.2,1.4-0.7,2.2-0.5
		c-0.1,0.4-0.4,0.4-0.7,0.5c-3.9,1-7.6,2.3-11.4,3.7c-4.1,1.5-8.1,3.2-11.9,5.2c-0.7,0.4-1.9,0.6-1.9,1.3c-0.2,1.5-0.4,3.1,0.1,4.6
		c-0.2,0.3-0.3,0.7-0.3,1.1c0,23.6,0,47.3,0,70.9c0,1.2-0.1,2.3,0.1,3.5c0.7,3.9,1.4,7.8,2.4,11.7c1.1,4.2,2.5,8.4,4.1,12.5
		c1.7,4.3,3.4,8.6,5.6,12.8c1.6,3.1,3.2,6.3,4.9,9.4c3.5,6.5,7.4,12.7,11.5,18.9c3,4.4,6,8.7,9.3,12.8c3.1,4,6.3,8,9.6,11.9
		c0.7,0.8,1.6,1.5,1.9,2.5c-0.6,0-0.7,0.6-1.2,0.8c-0.2,0.1-0.1,0.4,0,0.5c0.1,0.1,0.3,0.1,0.5,0.1c1-0.4,1.4-0.2,1.5,0.9
		c-0.8-0.1-1.5,0-2.2,0.4c-0.4,0.2-0.3,0.5-0.3,0.8c0,0.2,0.3,0.5,0.3,0.4c0.6-0.9,1.4-0.4,2.2-0.3c0.2,0,0.6-0.4,0.4-0.8
		c-0.1-0.2-0.3-0.3-0.3-0.5c0.4,0,0.6-0.1,0.7-0.5c0.3,0.2,0.8,0.4,0.8,0.9c-0.2,0-0.4-0.1-0.5,0c-0.2,0.1-0.1,0.3,0,0.4
		c0.9,0.5,0.7,1.2,0.3,2c0.7-0.6,1.1,0,1.6,0.1c0,0.3,0.2,0.4,0.4,0.4c0.3,1-0.7,1.7-0.7,2.7c0,7.6,0,15.1,0,22.7
		c0,0.7-0.2,1.1-0.9,1.3c-0.3-0.1-0.4-0.3-0.5-0.6C73.3,322.6,71.9,322.1,70.9,321.4z"/>
	<path class="st2" d="M21.5,97.6c-0.4-0.3-0.2-0.8-0.2-1.2c0-15.7,0-31.4,0-47.1c0-0.8-0.2-1.3-1-1.8c-1.7-1.2-3.3-2.5-5-3.8
		c-1.2-0.9-2.6-1.6-3.7-2.6c-3.5-3-7.4-5.5-11-8.3c-0.1-0.1-0.3-0.1-0.4-0.1c0.6-0.5,1.3-0.9,2.1-1.3c2.5-1.2,5-2.3,7.5-3.6
		c3.3-1.7,6.9-2.9,10.4-4.1c3.4-1.2,6.9-2.4,10.4-3.3c3.5-0.9,6.9-1.9,10.4-2.6c2.4-0.5,4.8-1.2,7.3-1.7c3.2-0.7,6.4-1.3,9.6-1.9
		c2.9-0.5,5.9-1.1,8.8-1.5c3.7-0.6,7.3-1.1,11-1.6c3.6-0.5,7.1-1,10.7-1.4c2.9-0.3,5.7-0.6,8.6-0.8c3.2-0.3,6.4-0.6,9.6-0.9
		c3.9-0.4,7.7-0.4,11.6-0.9c1.7-0.2,3.3-0.1,5-0.2c4.2-0.2,8.5-0.3,12.7-0.6c3-0.2,6.1-0.5,9.1-0.5c0.4,0,0.8-0.1,1.1,0.2
		c0.1,0.1,0.2,0.2,0.3,0.2c1.5,0,3,0,4.6,0c0.2,0,0.4-0.1,0.4-0.3c2.4,0,4.8,0.1,7.2,0.1c3.2,0,6.4,0,9.7,0c0.9,0,1.9-0.1,2.8-0.1
		c-0.1,0.5,0.3,0.7,0.7,0.7c0.5,0,0.8-0.2,0.8-0.7c5.4,0,10.8-0.2,16.2,0.7c-0.1,0.2-0.2,0.3-0.4,0.3c-1.6,0-3.3,0.1-4.9-0.1
		c-2.3-0.3-4.5-0.1-6.6,0.5c-0.3,0.1-0.5,0.2-0.5,0.5c0,0.3,0.2,0.5,0.5,0.5c0.9,0,0.9,0.5,0.9,1.1c0,2.6,0,5.2,0,7.8
		c0,2-0.1,4.1,0.1,6.1c0,0.8-0.2,0.9-0.9,1c-1.1,0.2-2.3-0.4-3.4,0.4c-0.1,0.1-0.5,0-0.7,0c-1,0.2-1.8-0.6-2.7-0.4
		c-0.9,0.2-1.8,0.1-2.7,0.1c-3.3,0.2-6.6,0.2-9.9,0.2c-1.6,0-3.2,0-4.7,0c-0.3,0-0.6-0.1-0.8,0.3c0.4,0.2,0.8,0.1,1.2,0.1
		c3.4,0,6.7,0,10.1,0c0.4,0,0.8-0.1,1.1,0.2c-0.2,0.2-0.4,0.2-0.7,0.2c-8.4,0-16.9,0-25.3,0.4c-3.8,0.2-7.5,0.5-11.3,0.5
		c-1.4,0-2.8,0-4.2,0.2c-5,0.6-10.1,0.6-15.1,1.2c-2.4,0.3-4.8,0.3-7.1,0.7c-4.1,0.5-8.1,1-12.2,1.5c-5.5,0.7-11,1.6-16.5,2.6
		c-2.5,0.4-5,1-7.5,1.5c-3.3,0.7-6.6,1.3-9.9,2.2c-3.1,0.9-6.2,1.7-9.3,2.6c-4.5,1.3-8.8,2.9-13.1,4.5c-3.1,1.2-6.2,2.5-9.1,4.2
		c-0.9,0.5-1.3,1-1.3,2c0,15.6,0,31.2,0,46.8C21.7,96.8,21.9,97.2,21.5,97.6z M145.8,24.9c-0.1-0.1-0.2-0.2-0.2-0.2
		c-0.1,0-0.2,0-0.3,0.1c-0.1,0.1,0,0.2,0.2,0.2C145.5,25,145.6,25,145.8,24.9z"/>
	<path class="st1" d="M164.3,25.3c-0.3-0.3-0.7-0.2-1.1-0.2c-3.4,0-6.7,0-10.1,0c-0.4,0-0.8,0.1-1.2-0.1c0.2-0.4,0.5-0.3,0.8-0.3
		c1.6,0,3.2,0,4.7,0c3.3-0.1,6.6-0.1,9.9-0.2c0.9,0,1.8,0.1,2.7-0.1c0.9-0.2,1.7,0.6,2.7,0.4c0.2-0.1,0.6,0.1,0.7,0
		c1.1-0.8,2.3-0.2,3.4-0.4c0.7-0.1,0.9-0.3,0.9-1c-0.1-2-0.1-4.1-0.1-6.1c0-2.6,0-5.2,0-7.8c0-0.6-0.1-1.2-0.9-1.1
		c-0.3,0-0.5-0.2-0.5-0.5c0-0.3,0.2-0.4,0.5-0.5c2.2-0.6,4.4-0.8,6.6-0.5c1.6,0.2,3.3,0.1,4.9,0.1c0.2,0,0.3-0.1,0.4-0.3
		c0.2,0,0.4,0,0.6,0c0.4,0.8,1.1,0.9,1.8,0.7c1.6-0.3,3.2,0.1,4.7,0c1.3-0.1,2.6,0.2,3.8-0.2c0.1,0,0.3,0,0.4,0
		c0.5,0.7,1.3,0.3,1.9,0.4c1.3,0.3,2.6,0.3,3.9,0c0.2,0,0.4,0,0.6,0c0.1,0.2,0.2,0.3,0.5,0.3c1.5-0.2,3,0.3,4.5,0.2
		c0.3,0,0.6,0,0.8,0c0.6,0.3,1.1,0.3,1.7,0c0.1,0,0.3,0,0.4,0c0.1,0.1,0.1,0.3,0.2,0.3c1.5,0.1,3,0.5,4.5,0.1c0.4,0,0.7,0.1,1.1,0.1
		c0.3,0.3,0.7,0.4,1.2,0.4c2.1,0.2,4.2,0.2,6.3,0.6c0.5,0.1,1.2,0.2,1.8-0.1c0.4,0,0.7,0.1,1.1,0.1c1.3,0.5,2.7,0.8,4.1,0.5
		c0.3,0,0.6,0,0.8,0c0.9,0.7,2,0.6,3,0.4c0.2,0,0.4,0,0.6,0c1.2,0.5,2.5,1,3.9,0.6c0.3,0,0.6,0,0.8,0c0.6,0.8,1.4,0.6,2.2,0.4
		c0.2,0,0.4,0,0.6,0c1.1,0.5,2.2,0.9,3.5,0.6c0.3,0,0.6,0,0.8,0c0.6,0.5,1.2,0.7,1.9,0.4c0.4,0,0.7,0,1.1,0.1c1,0.3,2,0.8,3.1,0.6
		c0.2,0,0.4,0,0.6,0c0.5,0.3,1.1,0.6,1.7,0.3c0.4,0,0.7,0,1.1,0.1c0.7,0.5,1.5,0.9,2.4,0.6c0.2,0,0.4,0,0.6,0
		c0.4,0.5,0.9,0.6,1.5,0.4c0.4,0,0.7,0,1.1,0.1c0.7,0.5,1.5,0.9,2.4,0.5c0.2,0,0.4,0,0.6,0c0.5,0.5,1,0.7,1.7,0.4c0.2,0,0.4,0,0.6,0
		c0.6,0.7,1.4,0.5,2.2,0.5c0.2,0,0.4,0,0.6,0c0.5,0.5,1.1,0.5,1.8,0.5c0.1,0,0.3,0,0.4,0c0.5,0.5,1.2,0.5,1.9,0.4
		c0.2,0,0.4,0,0.6,0.1c0.4,0.5,1,0.5,1.6,0.5c0.2,0,0.4,0,0.6,0c0.6,0.4,1.3,0.8,2.1,0.4c0.1,0,0.3,0,0.4,0c0.2,0.4,0.6,0.7,1.1,0.4
		c0.2,0,0.4,0,0.6,0c0.5,0.5,1.1,0.8,1.8,0.6c0.3,0,0.5,0,0.8,0.1c0.2,0.3,0.5,0.4,0.9,0.4c0.1,0,0.2,0,0.4,0
		c0.6,0.5,1.3,0.7,2.1,0.5c0.1,0,0.3,0,0.4,0c0.2,0.3,0.4,0.6,0.9,0.4c0.1,0,0.3,0,0.4,0c0.5,0.3,0.9,1,1.7,0.5c0.2,0,0.4,0,0.6,0.1
		c0.8,0.8,1.8,0.8,2.8,1c0.2,0,0.4,0,0.6,0.1c0.2,0.4,0.4,0.7,0.9,0.4c0.2,0,0.4,0,0.6,0.1c0.4,0.4,0.7,0.7,1.3,0.5
		c0.2,0,0.4,0,0.6,0c0.1,0.2,0.2,0.3,0.5,0.3c0.2,0,0.4,0.1,0.6,0.1c0.8,0.6,1.8,0.9,2.9,1.1c0.2,0,0.4,0,0.6,0.1
		c0.1,0.4,0.4,0.4,0.7,0.4c0.3,0.1,0.7,0.2,1,0.2c0.1,0.3,0.3,0.4,0.7,0.4c0.2,0,0.4,0,0.6,0.1c0,0.3,0.2,0.4,0.5,0.3
		c0.3,0,0.5,0.1,0.8,0.1c0.4,0.6,1,0.6,1.6,0.7c0.1,0,0.2,0,0.4,0.1c0.8,0.9,2.1,0.9,3.1,1.3c0.2,0,0.4,0,0.6,0.1
		c1.1,1,2.5,1.3,3.9,1.8c0.1,0,0.3,0.1,0.4,0.1c0.1,0.4,0.4,0.4,0.7,0.3c0.1,0,0.1,0,0.2,0c0.8,0.6,1.5,1.2,2.6,1.2
		c0.1,0,0.3,0,0.4,0c0,0.2,0.2,0.3,0.4,0.4c0,0.8,0.1,1.6,0.1,2.3c0,53.2,0,106.4,0,159.7c0,1.2,0.1,2.5-0.1,3.7
		c-0.2,2.1-0.6,4.1-0.9,6.2c-0.6,3.8-1.6,7.5-2.6,11.1c-0.2,0.6,0,1.3-0.7,1.7c-0.2-0.8,0.2-1.5,0.4-2.1c0.8-2.5,1.3-5.1,1.9-7.6
		c0.6-2.6,1.1-5.2,1.3-7.8c0.2-3.3,0.4-6.5,0.4-9.8c0-51.9,0-103.9,0-155.8c0-0.4,0.3-0.9-0.3-1.1c-0.4-0.1-0.8,0.3-1.1,0.5
		c-2.9,2.2-5.8,4.4-8.7,6.6c-2.9,2.2-5.7,4.5-8.7,6.5c-1.6,1.1-2,2.3-1.9,4.1c0.1,15.6,0,31.2,0,46.8c0,0.4,0.4,1-0.5,1.1
		c0-0.3,0-0.5,0-0.8c0-13.2,0-26.4,0-39.6c0-2.8,0-5.7,0-8.5c0-0.9-0.3-1.4-1.2-1.8c-1.8-0.7-3.5-1.6-5.2-2.3
		c-2.9-1.2-5.8-2.4-8.8-3.3c-0.1-0.5-0.5-0.6-1-0.5c-0.3,0-0.5-0.1-0.8-0.1c0-0.3-0.2-0.4-0.5-0.3c-0.3,0-0.5-0.1-0.8-0.1
		c-0.2-0.5-0.5-0.7-1.1-0.4c-0.1,0-0.3,0-0.4,0c-0.1-0.4-0.3-0.6-0.7-0.5c-0.2,0-0.4,0-0.6,0c-0.4-0.3-0.8-0.9-1.5-0.4
		c-0.1,0-0.3,0-0.4,0c-0.4-0.5-0.9-0.7-1.5-0.5c-0.2,0-0.4,0-0.6-0.1c-0.2-0.6-0.5-0.7-1.1-0.4c-0.1,0-0.3,0-0.4,0
		c-0.2-0.4-0.4-0.7-0.9-0.4c-0.1,0-0.3,0-0.4,0c-0.5-0.4-1-0.8-1.7-0.5c-0.4,0-0.7,0-1.1-0.2c-0.4-0.6-0.9-0.8-1.5-0.4
		c-0.1,0-0.3,0-0.4-0.1c-0.2-0.6-0.5-0.7-1.1-0.4c-0.2,0-0.4,0-0.6,0c-0.6-0.7-1.4-0.7-2.2-0.7c-0.1,0-0.2,0-0.4,0
		c-0.2-0.5-0.6-0.6-1.1-0.3c-0.2,0-0.4,0-0.6,0c-0.7-0.7-1.5-0.8-2.4-0.5c-0.1,0-0.3,0-0.4,0c-0.2-0.6-0.6-0.6-1.2-0.5
		c-0.3,0-0.5,0-0.8,0c-0.7-0.6-1.5-0.9-2.4-0.5c-0.1,0-0.3,0-0.4,0c-0.4-0.6-1-0.6-1.6-0.5c-0.3,0-0.5,0-0.8,0
		c-0.7-0.4-1.5-0.7-2.4-0.5c-0.2,0-0.4,0-0.6,0c-0.4-0.5-0.9-0.6-1.5-0.4c-0.4-0.1-0.9-0.1-1.3-0.2c-0.8-0.5-1.6-0.8-2.6-0.4
		c-0.2,0-0.4,0-0.6,0c-0.4-0.7-1.1-0.7-1.7-0.4c-0.3,0-0.6-0.1-0.8-0.1c-0.4-0.4-1-0.5-1.5-0.3c-0.1,0-0.3,0-0.4,0
		c-0.2-0.5-0.5-0.4-0.9-0.2c-0.4,0-0.7,0-1.1,0c-0.4-1-1.3-0.4-2-0.5c-0.3,0-0.7,0.2-1,0.1c-0.5-0.5-1.2-0.4-1.8-0.5
		c-0.1,0-0.2,0-0.4,0c-0.3-0.4-0.7-0.3-1.1-0.1c-0.4,0-0.8,0-1.3-0.1c-0.1-0.4-0.4-0.3-0.7-0.3c-0.1,0-0.3,0-0.4,0
		c-0.2-0.3-0.4-0.2-0.7-0.2c-0.6,0-1.1,0-1.7,0c-1.1-0.5-2.2-0.7-3.4-0.5c-0.4,0-0.7,0-1.1,0c-0.8-0.6-1.7-0.7-2.6-0.4
		c-0.5,0-1-0.1-1.5-0.1c-1.4-0.5-2.8-0.7-4.3-0.5c-0.5,0-1,0-1.5-0.1c-0.3-0.6-1-0.2-1.4-0.4c-1.3-0.6-2.6-0.4-4-0.1
		c-0.1,0-0.3,0-0.4,0c0-0.1-0.1-0.3-0.1-0.3c-1.5,0-2.9-0.6-4.4-0.1c-0.7,0-1.4,0.1-2.2-0.2c-1.1-0.5-2.3-0.5-3.5-0.4
		c-1.3,0-2.6,0-3.8,0c-0.5-0.4-1-0.4-1.6-0.4c-1.2,0-2.4,0-3.6-0.1c-1-0.1-2-0.3-2.9,0.1c-1,0-2,0-3,0c-0.2-0.4-0.6-0.3-0.9-0.3
		c-0.7,0-1.5,0-2.2,0c-3.5-0.4-7-0.4-10.5-0.4c-0.2,0-0.4,0-0.6,0.2c-0.1,0-0.3,0-0.4,0c-0.4-0.4-0.9-0.3-1.3,0
		C166.4,25.3,165.4,25.3,164.3,25.3z"/>
	<path class="st2" d="M74,324.6c0.7-0.2,0.9-0.6,0.9-1.3c0-7.6,0-15.1,0-22.7c0-1,1-1.7,0.7-2.7l0,0c0.4,0,0.6,0.4,0.9,0.7
		c0.9,0.7,1.5,1.8,2.6,2.4l0,0c0,0.2,0,0.4,0.1,0.5c1.1,1.1,2.3,2.3,3.3,3.5c0.2,0.3,0.5,0.5,0.9,0.5l0,0c0.9,1.6,2.3,2.8,3.8,3.9
		l0,0c0.7,1.2,1.7,2.3,3,3l0,0c0.7,1.3,2,2,3,3c1.4,1.5,2.9,2.7,4.4,4.1c0.9,0.9,1.7,1.9,2.9,2.4l0,0c0,0.3,0.1,0.4,0.4,0.4l0,0
		c0,0.3,0.2,0.5,0.4,0.7c1.8,1.4,3.2,3,5,4.4c3.8,3,7.4,6.3,11.2,9.2c3.9,3,7.7,6.2,11.7,9.1c2.1,1.6,4.2,3.2,6.4,4.7
		c0.8,0.6,1.5,1.5,2.7,1.6l0,0c0.5,0.8,1.3,1.3,2.3,1.6l0.1,0c0.1,0,0.1,0.1,0.2,0.1c0.1,0.1,0.2,0.1,0.3,0.2
		c0.1,0.2,0.2,0.2,0.4,0.2c0.3,0.2,0.6,0.4,0.9,0.6c0.1,0.1,0.1,0.1,0.2,0.2c0,0,0,0,0,0c0.1,0.1,0.1,0.1,0.2,0.2c0,0,0,0,0,0
		c0.1,0.2,0.2,0.2,0.4,0.2c1.3,0.8,2.7,1.6,3.8,2.6c0,0.6,0.5,0.7,0.9,1c2.1,1.4,4.2,2.7,6.3,4.1c1.8,1.1,3.6,2.5,5.4,3.6
		c1.1,0.6,2.3,1.1,3.1,2c0,3.5,0,7,0,10.5c-0.5,0.2-0.4,0.6-0.4,1c0,4.6,0,9.3,0,13.9c-3-1.9-6-3.7-8.9-5.7
		c-5.5-3.6-10.9-7.2-16.3-11c-3.9-2.8-7.8-5.5-11.6-8.3c-3.8-2.9-7.7-5.7-11.4-8.7c-5.3-4.2-10.4-8.5-15.6-12.8
		c-2.3-1.9-4.4-3.9-6.7-5.9c-3.7-3.2-7.2-6.6-10.8-10c-2.3-2.2-4.5-4.4-6.8-6.7C74.2,325,74.1,324.8,74,324.6z"/>
	<path class="st1" d="M308.6,247.4c-0.3-0.5,0.2-0.8,0.4-1.1c1.7-3.2,3.2-6.6,4.7-9.9c1.6-3.5,3-7,4.3-10.6c1-2.6,1.8-5.2,2.6-7.8
		c0.1-0.2,0.1-0.4,0.3-0.5c0.4,0.9-0.3,1.6-0.5,2.3c-1.7,5-3.5,10.1-5.7,15c-1.8,4-3.6,8-5.5,11.9
		C309.1,247,308.9,247.3,308.6,247.4z"/>
	<path class="st1" d="M291.4,276.3c0.5-1.6,1.7-2.9,2.6-4.2c1.8-2.6,3.4-5.3,5-7.9c1.8-3,3.6-6,5.3-9.1c1.3-2.2,2.4-4.5,3.6-6.7
		c0.1-0.3,0.2-0.5,0.5-0.6c-0.5,1.6-1.4,3.1-2.2,4.6c-1.4,2.6-2.8,5.2-4.4,7.8c-2,3.4-4.2,6.8-6.3,10.2c-1.2,1.9-2.4,3.7-3.6,5.5
		C291.8,276,291.7,276.3,291.4,276.3z"/>
	<path class="st1" d="M232.9,341.9c0.7-1.2,1.8-2,2.8-2.9c3.6-3.1,7-6.4,10.3-9.7c2-2,4.1-3.8,5.9-5.9c0.2-0.2,0.4-0.5,0.8-0.4
		c-1.1,1.6-2.6,2.9-4,4.2c-3.5,3.5-7.2,6.9-10.8,10.4c-1.4,1.4-3,2.6-4.4,4C233.3,341.7,233.2,341.9,232.9,341.9z"/>
	<path class="st1" d="M262.4,312.8c0.3-1.2,1.4-1.8,2.1-2.7c2.1-2.6,4.5-5,6.5-7.6c0.4-0.5,0.7-0.9,1.3-1.2c-0.3,1-1.1,1.6-1.7,2.3
		c-2.5,2.9-5,5.7-7.5,8.6C262.9,312.5,262.7,312.8,262.4,312.8z"/>
	<path class="st1" d="M162.4,394.2c0-4.6,0-9.3,0-13.9c0-0.3-0.2-0.8,0.4-1c0,4.5,0,9,0.1,13.5c0,0.4-0.2,0.9,0.5,1.1
		C163.1,394.4,162.7,394.3,162.4,394.2z"/>
	<path class="st1" d="M173.5,387.3c0-0.3,0.2-0.5,0.5-0.6c3.3-2,6.4-4.3,9.6-6.5c0.3-0.2,0.6-0.4,1-0.3c-1,1.1-2.2,1.7-3.4,2.5
		c-2.3,1.6-4.7,3.1-7.1,4.7C173.9,387.2,173.7,387.3,173.5,387.3z"/>
	<path class="st1" d="M193.9,373.2c0.5-1.1,1.7-1.5,2.6-2.2c2.2-1.7,4.5-3.4,6.8-5c0.1-0.1,0.2,0,0.3-0.1c0,0.3-0.2,0.4-0.4,0.6
		c-3,2.2-5.9,4.4-8.9,6.6C194.2,373.2,194.1,373.2,193.9,373.2z"/>
	<path class="st2" d="M199.6,7c-1.3,0.4-2.5,0.1-3.8,0.2c-1.6,0.1-3.1-0.4-4.7,0c-0.7,0.2-1.4,0.1-1.8-0.7c1.9-0.3,3.8,0,5.6,0.2
		c1.2,0.1,2.4,0.1,3.6,0.2C198.8,6.8,199.3,6.6,199.6,7z"/>
	<path class="st1" d="M163.4,393.8c0.4-0.8,1.3-1,2-1.5c2.3-1.6,4.8-3.2,7.2-4.7c0.2-0.1,0.4-0.1,0.6-0.1c-1.6,1.4-3.5,2.5-5.3,3.6
		C166.4,392.1,165.1,393.2,163.4,393.8z"/>
	<path class="st1" d="M277.6,294.9c0.4-1.3,1.5-2.1,2.3-3.2c1-1.5,2.1-2.9,3.2-4.3c0.2-0.2,0.4-0.4,0.7-0.5
		c-0.2,1.1-1.1,1.8-1.7,2.6c-1.2,1.6-2.4,3.1-3.6,4.7C278.3,294.5,278.1,294.8,277.6,294.9z"/>
	<path class="st2" d="M229.4,9.5c-0.6,0.3-1.2,0.2-1.8,0.1c-2.1-0.4-4.2-0.4-6.3-0.6c-0.4,0-0.8-0.1-1.2-0.4c0.4-0.3,1-0.2,1.4-0.1
		c2.4,0.5,4.9,0.4,7.3,0.8C229.1,9.3,229.3,9.2,229.4,9.5z"/>
	<path class="st1" d="M184.7,379.8c0.2-0.7,0.9-1,1.5-1.4c1.3-1,2.8-1.8,4-2.8c0.3-0.3,0.6-0.5,1-0.4c-0.4,0.8-1.3,1.1-2,1.6
		C187.7,377.8,186.4,379,184.7,379.8z"/>
	<path class="st1" d="M284.1,286.5c0-0.2,0-0.4,0.1-0.6c1.3-1.8,2.6-3.6,3.9-5.4c0.1-0.2,0.4-0.3,0.6-0.4c-0.2,1.1-1.1,1.9-1.8,2.8
		C286,284.2,285.3,285.5,284.1,286.5z"/>
	<path class="st2" d="M2.3,211c0.7,0.9,0.7,2,1,2.9c0.4,1.3,0.6,2.6,1.2,3.8c0,0.1-0.1,0.2-0.1,0.4c-0.7-0.5-0.7-1.4-0.9-2.1
		C3,214.4,2.3,212.7,2.3,211z"/>
	<path class="st1" d="M225.2,348.7c0.3-1.1,1.5-1.4,2.2-2.2c0.8-0.9,1.8-1.6,2.7-2.4c0.2-0.2,0.4-0.3,0.6-0.3
		c-0.3,0.8-1,1.2-1.6,1.7C227.8,346.5,226.7,347.8,225.2,348.7z"/>
	<path class="st1" d="M273.4,300.2c0-0.7,0.6-1,1-1.5c0.9-1.1,1.8-2.3,2.8-3.4c0.2-0.2,0.3-0.4,0.6-0.4
		C276.5,296.9,275,298.6,273.4,300.2z"/>
	<path class="st2" d="M205.8,7.4c-1.3,0.3-2.6,0.3-3.9,0c-0.6-0.1-1.4,0.3-1.9-0.4c1.8-0.2,3.7,0.1,5.5,0.2
		C205.6,7.2,205.7,7.4,205.8,7.4z"/>
	<path class="st2" d="M4.4,218.7c0.8,0.5,0.7,1.4,1,2.2c0.5,1.1,0.7,2.3,1.2,3.4c0,0.1-0.1,0.2-0.1,0.4c-1-1.3-1.2-2.8-1.7-4.3
		C4.6,219.8,4.2,219.3,4.4,218.7z"/>
	<path class="st1" d="M258.5,317c0.6-1.3,1.7-2.1,2.6-3.1c0.4-0.4,0.5-1.1,1.3-1.1C261.3,314.4,260,315.8,258.5,317z"/>
	<path class="st1" d="M253.1,322.6c0.5-1.2,1.6-1.8,2.4-2.7c0.4-0.5,0.7-1.2,1.5-1.3C256,320.1,254.7,321.5,253.1,322.6z"/>
	<path class="st2" d="M0.6,202.6c0.6,1.7,0.8,3.4,1,5.1c-0.9-0.4-0.6-1.2-0.6-1.8C0.9,204.9,0.3,203.8,0.6,202.6z"/>
	<path class="st1" d="M219.6,353.3c0-0.7,0.7-0.8,1.1-1.1c0.9-0.7,1.6-1.7,2.8-2.1C222.4,351.4,221.1,352.5,219.6,353.3z"/>
	<path class="st2" d="M219.1,8.5c-1.5,0.4-3,0-4.5-0.1c-0.1,0-0.2-0.2-0.2-0.3C216,8,217.6,7.9,219.1,8.5z"/>
	<path class="st1" d="M151.4,5.8c0,0.2-0.2,0.3-0.4,0.3c-1.5,0-3,0-4.6,0c-0.1,0-0.2-0.1-0.3-0.2C147.8,5.6,149.6,5.8,151.4,5.8z"/>
	<path class="st2" d="M211.4,8c-1.5,0.1-3-0.3-4.5-0.2c-0.2,0-0.4-0.1-0.5-0.3c1.6-0.2,3.1,0.1,4.7,0.2C211.3,7.6,211.4,7.8,211.4,8
		z"/>
	<path class="st1" d="M288.8,280c0.5-1.5,1.5-2.6,2.5-3.7C290.8,277.8,289.9,278.9,288.8,280z"/>
	<path class="st2" d="M234.6,10c-1.4,0.4-2.8,0.1-4.1-0.5c0.3-0.3,0.8-0.2,1.1-0.1C232.6,9.6,233.6,9.8,234.6,10z"/>
	<path class="st1" d="M206.2,364c0.8-1.2,2-2,3.3-2.6C208.6,362.6,207.5,363.4,206.2,364z"/>
	<path class="st2" d="M70.9,321.4c1,0.7,2.4,1.2,2.6,2.7C72.4,323.4,71.4,322.6,70.9,321.4z"/>
	<path class="st2" d="M243,11.1c-1.4,0.5-2.7,0-3.9-0.6C240.5,10.3,241.7,10.8,243,11.1z"/>
	<path class="st1" d="M212.3,359.2c0.9-1.1,2-2.1,3.4-2.7C214.7,357.7,213.6,358.6,212.3,359.2z"/>
	<path class="st2" d="M7.7,228.1c1,0.3,0.5,1.3,0.9,1.9c0.3,0.4,0.4,1.1,0.6,1.6c-0.8-0.4-0.9-1.3-1.2-2
		C7.9,229.1,7.4,228.6,7.7,228.1z"/>
	<path class="st2" d="M0.1,198.5c0.7,1,0.5,2.2,0.5,3.3C-0.2,200.8,0,199.7,0.1,198.5z"/>
	<path class="st2" d="M250.1,12.1c-1.2,0.3-2.4,0-3.5-0.6C247.9,11.3,249,11.6,250.1,12.1z"/>
	<path class="st2" d="M320.7,30.4c-1.4-0.5-2.8-0.8-3.9-1.8C318.1,29,319.6,29.4,320.7,30.4z"/>
	<path class="st1" d="M209.5,361.5c0.7-1.1,1.7-1.7,2.8-2.2C211.6,360.3,210.6,360.9,209.5,361.5z"/>
	<path class="st2" d="M238.5,10.5c-1.1,0.2-2.1,0.3-3-0.4C236.5,10,237.5,10.1,238.5,10.5z"/>
	<path class="st2" d="M9.3,232.3c0.3,0.1,0.5,0.2,0.5,0.4c0.2,1,0.9,1.9,1.1,2.9C9.9,234.8,9.7,233.5,9.3,232.3z"/>
	<path class="st2" d="M316.2,28.5c-1-0.4-2.3-0.4-3.1-1.3C314.2,27.5,315.4,27.5,316.2,28.5z"/>
	<path class="st2" d="M257,13.2c-1.1,0.2-2.1-0.3-3.1-0.6C255,12.5,256.1,12.7,257,13.2z"/>
	<path class="st2" d="M306.3,24.8c-1-0.2-2-0.4-2.9-1.1C304.5,23.9,305.5,24.1,306.3,24.8z"/>
	<path class="st1" d="M216.9,355.5c0.5-0.9,1.3-1.4,2.2-1.8C218.6,354.5,217.9,355.1,216.9,355.5z"/>
	<path class="st2" d="M298.3,22.3c-1-0.1-2.1-0.2-2.8-1C296.4,21.5,297.5,21.6,298.3,22.3z"/>
	<path class="st1" d="M191.6,374.9c0.5-0.9,1.3-1.2,2.2-1.6C193.2,374,192.5,374.6,191.6,374.9z"/>
	<path class="st2" d="M268.4,15.1c-0.9,0.4-1.7,0-2.4-0.5C266.8,14.5,267.6,14.7,268.4,15.1z"/>
	<path class="st2" d="M246,11.5c-0.8,0.2-1.6,0.4-2.2-0.4C244.6,11,245.4,10.9,246,11.5z"/>
	<path class="st2" d="M324.5,32c-1.1,0-1.8-0.6-2.6-1.2C322.9,30.9,323.7,31.4,324.5,32z"/>
	<path class="st1" d="M203.7,365.9c0.5-0.8,1.2-1.3,2.2-1.6C205.3,365.1,204.6,365.6,203.7,365.9z"/>
	<path class="st1" d="M172.4,5.8c0.1,0.6-0.3,0.7-0.8,0.7c-0.4,0-0.8-0.2-0.7-0.7C171.5,5.8,172,5.8,172.4,5.8z"/>
	<path class="st2" d="M262.8,14.1c-0.9,0.3-1.7-0.1-2.4-0.6C261.2,13.6,262.1,13.6,262.8,14.1z"/>
	<path class="st2" d="M1.7,208.3c0.4,0.6,0.7,1.3,0.6,2.1C1.6,209.9,1.5,209.1,1.7,208.3z"/>
	<path class="st2" d="M283.2,18.2c-0.8,0.4-1.5,0-2.1-0.4C281.9,17.6,282.5,17.9,283.2,18.2z"/>
	<path class="st2" d="M291.4,20.3c-0.8,0.2-1.5,0-2.1-0.5C290,19.7,290.7,19.8,291.4,20.3z"/>
	<path class="st2" d="M252.9,12.5c-0.7,0.3-1.4,0.1-1.9-0.4C251.6,12,252.3,12,252.9,12.5z"/>
	<path class="st1" d="M223.5,350.1c0.4-0.7,0.9-1.2,1.7-1.4C224.8,349.3,224.3,349.8,223.5,350.1z"/>
	<path class="st1" d="M257,318.5c0.2-0.7,0.8-1.1,1.4-1.5C258.2,317.8,257.7,318.2,257,318.5z"/>
	<path class="st2" d="M278.3,17.2c-0.7,0-1.4,0.1-1.9-0.4C277.1,16.5,277.7,16.7,278.3,17.2z"/>
	<path class="st2" d="M273.5,16.2c-0.8,0-1.6,0.2-2.2-0.5C272.1,15.7,272.9,15.7,273.5,16.2z"/>
	<path class="st2" d="M270.7,15.6c-0.7,0.3-1.3,0.1-1.7-0.4C269.6,15,270.2,15.1,270.7,15.6z"/>
	<path class="st2" d="M287.2,19.3c-0.8,0.2-1.3-0.1-1.8-0.6C286,18.7,286.7,18.7,287.2,19.3z"/>
	<path class="st2" d="M259.3,13.5c-0.6,0.4-1.2,0.1-1.7-0.3C258.3,12.9,258.8,13.2,259.3,13.5z"/>
	<path class="st2" d="M294.8,21.2c-0.8,0.4-1.2-0.2-1.7-0.5C293.8,20.6,294.3,20.9,294.8,21.2z"/>
	<path class="st2" d="M68.2,318.7c0.9,0,1,0.7,1.3,1.2C68.7,319.8,68.5,319.2,68.2,318.7z"/>
	<path class="st2" d="M214,8c-0.6,0.3-1.2,0.3-1.7,0C212.8,7.7,213.4,7.7,214,8z"/>
	<path class="st2" d="M264.9,14.5c-0.6,0.2-1.1,0.1-1.5-0.4C264,14.1,264.6,13.9,264.9,14.5z"/>
	<path class="st2" d="M275.9,16.7c-0.7,0-1.3,0-1.8-0.5C274.8,16.1,275.5,16.1,275.9,16.7z"/>
	<path class="st1" d="M231.6,343.1c0.2-0.6,0.7-1,1.3-1.2C232.7,342.5,232.3,342.9,231.6,343.1z"/>
	<path class="st2" d="M7.1,226.3c0.3,0.4,0.8,0.7,0.6,1.3C7.1,227.3,6.9,226.8,7.1,226.3z"/>
	<path class="st2" d="M280.5,17.7c-0.6,0-1.2,0-1.6-0.5C279.5,17.1,280.1,17.1,280.5,17.7z"/>
	<path class="st2" d="M66.7,317.1c0.6,0.1,1,0.4,1,1.1C67.2,318,66.8,317.6,66.7,317.1z"/>
	<path class="st2" d="M312.7,27.1c-0.6-0.1-1.2-0.1-1.6-0.7C311.8,26.4,312.3,26.6,312.7,27.1z"/>
	<path class="st2" d="M301.7,23.3c-0.6,0.2-1-0.2-1.3-0.5C300.9,22.7,301.3,22.9,301.7,23.3z"/>
	<path class="st1" d="M215.7,356.5c0.1-0.4,0.4-0.8,0.9-0.8C216.4,356.2,216.2,356.5,215.7,356.5z"/>
	<path class="st2" d="M299.8,22.7c-0.5,0.3-0.7,0-0.9-0.4C299.3,22.2,299.6,22.3,299.8,22.7z"/>
	<path class="st2" d="M69.4,319.9c0.5,0.1,0.8,0.3,0.8,0.8C69.8,320.7,69.5,320.4,69.4,319.9z"/>
	<path class="st2" d="M284.7,18.6c-0.5,0.3-0.8,0-1.1-0.4C284,18.2,284.4,18.3,284.7,18.6z"/>
	<path class="st1" d="M272.5,301.2c0.1-0.5,0.3-0.7,0.8-0.9C273.2,300.8,272.9,301.1,272.5,301.2z"/>
	<path class="st2" d="M6.5,225c0.4,0.2,0.5,0.5,0.5,0.9C6.6,225.8,6.4,225.5,6.5,225z"/>
	<path class="st2" d="M292.7,20.7c-0.5,0.2-0.7,0-0.9-0.4C292.2,20.2,292.5,20.4,292.7,20.7z"/>
	<path class="st2" d="M288.9,19.8c-0.4,0.1-0.7-0.1-0.9-0.4C288.4,19.1,288.7,19.4,288.9,19.8z"/>
	<path class="st2" d="M321.7,30.8c-0.3,0-0.6,0-0.7-0.3C321.4,30.4,321.7,30.4,321.7,30.8z"/>
	<path class="st2" d="M307.6,25.3c-0.3,0-0.6,0.1-0.7-0.4C307.2,24.9,307.5,24.9,307.6,25.3z"/>
	<path class="st2" d="M309.3,25.9c-0.3,0.1-0.6-0.1-0.7-0.4C308.9,25.5,309.2,25.5,309.3,25.9z"/>
	<path class="st1" d="M252.7,323c0-0.3,0.1-0.4,0.4-0.4C253.1,322.8,253,323,252.7,323z"/>
	<path class="st1" d="M230.8,343.8c0-0.3,0.1-0.4,0.4-0.4C231.2,343.6,231,343.7,230.8,343.8z"/>
	<path class="st2" d="M302.8,23.7c-0.3,0-0.4-0.1-0.5-0.3C302.6,23.2,302.8,23.4,302.8,23.7z"/>
	<path class="st2" d="M310.4,26.3c-0.3,0.1-0.5-0.1-0.5-0.3C310.1,25.9,310.3,26,310.4,26.3z"/>
	<path class="st2" d="M325.3,32.4c-0.2,0-0.4-0.1-0.4-0.4C325.2,32,325.3,32.1,325.3,32.4z"/>
	<path class="st3" d="M142.4,355c-0.3-0.2-0.6-0.4-0.9-0.6c0-0.3-0.3-0.2-0.4-0.2c-0.1-0.1-0.2-0.1-0.3-0.2c0-0.1-0.1-0.2-0.2-0.1
		c0,0-0.1,0-0.1,0c-0.6-0.7-1.4-1.2-2.3-1.6c0,0,0,0,0,0c0-0.2-0.2-0.3-0.4-0.5c-2.9-2.1-5.7-4.1-8.5-6.2c-5.3-4-10.5-8-15.6-12.3
		c-3-2.5-5.9-5-8.8-7.5c-1.3-1.1-2.5-2.4-4-3.3c0,0,0,0,0,0c0-0.2-0.2-0.3-0.4-0.4c0,0,0,0,0,0c0-0.3-0.2-0.4-0.4-0.6
		c-2.3-2.2-4.6-4.4-7-6.5c-0.9-0.8-1.7-2-2.9-2.5c0,0,0,0,0,0c-0.8-1.2-1.9-2.2-3-3c0,0,0,0,0,0c-1.1-1.4-2.3-2.8-3.8-3.9
		c0,0,0,0,0,0c-1.2-1.7-2.6-3.2-4.3-4.5c0,0,0,0,0,0c-0.4-1.1-1.4-1.8-2.1-2.6c-0.5-0.6-0.9-1.4-1.8-1.6c-0.2-0.2-0.3-0.4-0.5-0.7
		c-0.1-0.3-0.3-0.5-0.5-0.6l0,0c0-0.1-0.1-0.2-0.2-0.2l0,0c0-0.1-0.1-0.2-0.2-0.2l0,0c0-0.5-0.4-0.6-0.8-0.9l0,0
		c-0.1-0.1-0.1-0.1-0.2-0.2l0,0c0-0.5-0.4-0.7-0.7-0.9l0,0c0-0.1-0.1-0.2-0.2-0.2l0,0c0-0.1,0-0.2-0.2-0.2l0,0
		c-0.1-0.1-0.1-0.1-0.2-0.2l0,0c-0.3-1-1.3-1.7-1.9-2.5c-3.4-3.8-6.5-7.8-9.6-11.9c-3.2-4.2-6.3-8.5-9.3-12.8
		c-4.2-6.1-8.1-12.4-11.5-18.9c-1.7-3.1-3.3-6.2-4.9-9.4c-2.1-4.2-3.9-8.5-5.6-12.8c-1.6-4.1-3-8.3-4.1-12.5
		c-1-3.9-1.8-7.8-2.4-11.7c-0.2-1.1-0.1-2.3-0.1-3.5c0-23.6,0-47.3,0-70.9c0-0.4,0-0.7,0.3-1.1c0.2-0.1,0.4-0.2,0.7-0.4
		c0.1,0.1,0.2,0,0.2-0.1l0,0c0.2,0,0.5,0.1,0.4-0.3c0.3-0.1,0.5-0.2,0.8-0.3c4.5-2.4,9.2-4.2,13.9-5.9c4.1-1.4,8.2-2.7,12.4-3.8
		c3.9-1.1,7.8-2,11.7-2.9c4.8-1,9.7-1.9,14.5-2.8c5-0.8,10.1-1.6,15.1-2.3c6.4-0.8,12.8-1.5,19.3-2.1c3.9-0.4,7.9-0.6,11.9-0.9
		c3.9-0.3,7.8-0.4,11.7-0.6c6.1-0.3,12.3-0.5,18.5-0.6c8.4-0.1,16.9,0,25.3,0.3c3.6,0.1,7.2,0.2,10.8,0.4c5.8,0.3,11.6,0.6,17.3,1.1
		c3.4,0.3,6.8,0.5,10.2,0.9c4.4,0.5,8.7,0.9,13.1,1.4c4.1,0.5,8.3,1.1,12.4,1.8c3.6,0.6,7.3,1.2,10.9,1.8c4.7,0.9,9.3,1.8,13.9,2.9
		c3.5,0.9,7.1,1.7,10.6,2.7c5.1,1.4,10.2,3,15.1,4.9c3.7,1.4,7.3,2.8,10.7,4.6c0.2,0.3,0.4,0.7,0.4,1.1c0,24.5,0,49-0.1,73.5
		c0,2-0.4,4.1-1.1,6.1c-0.3,0.9-0.3,1.8-0.5,2.8c-0.6,2.3-1.1,4.7-2,6.9c-0.4,1.1-0.5,2.3-1,3.5c-0.9,2.1-1.7,4.2-2.4,6.4
		c-0.8,2.5-2.3,4.7-3.2,7.2c-0.2,0.6-0.3,1.1-0.5,1.7c-0.3,0.9-0.8,1.8-1.2,2.7c-1.1,2.5-2.3,5-3.6,7.3c-1.7,3-3.4,6.2-5.2,9.2
		c-1.2,2.1-2.5,4.1-3.8,6.2c-1.5,2.4-3.2,4.8-4.8,7.1c-1.8,2.7-3.7,5.4-5.5,8c-0.9,1.3-2,2.4-2.9,3.6c-1.2,1.8-2.8,3.4-4,5.3
		c-0.5,0.8-1.3,1.5-1.9,2.2c-2.3,2.6-4.4,5.3-6.7,7.9c-2.7,2.9-5.3,5.8-7.9,8.7c-4.6,5-9.6,9.7-14.5,14.5c-2.3,2.3-4.7,4.5-7.2,6.7
		c-2.1,1.8-4.1,3.8-6.3,5.5c-2.3,1.7-4.3,3.8-6.7,5.4c-1.3,0.9-2.4,2.2-3.7,3.1c-1.1,0.8-2.1,1.7-3.1,2.5c-1.5,1.4-3.5,2.3-4.9,3.8
		c-0.9,1-2.1,1.8-3.3,2.5c-1.3,0.8-2.3,1.9-3.6,2.7c-2.2,1.4-4.2,3.1-6.4,4.6c-1.4,1-2.8,2.1-4.2,3c-1.6,1.1-3.3,2.2-4.9,3.3
		c-1.8,1.2-3.6,2.4-5.4,3.6c-1.9,1.2-3.8,2.5-5.7,3.7c-0.8,0.5-1.6,1-2.4,1.5c-0.4-0.1-0.8-0.2-1.1-0.4c-3.9-2.5-7.8-5.1-11.8-7.7
		c-1-0.7-2-1.5-3.2-1.9c-1.1-1.1-2.5-1.9-3.8-2.6c0-0.3-0.3-0.2-0.4-0.2c0,0,0,0,0,0c-0.1-0.1-0.1-0.1-0.2-0.2c0,0,0,0,0,0
		C142.6,355,142.5,355,142.4,355z M100.4,188.4c0-0.1,0-0.3-0.1-0.4c-1.3-1.7-3.2-2.9-5-4.1c-0.7-0.4-1.4-0.7-1.9-1.4
		c-1.1-1.3-2.2-2.6-3.4-3.9c-0.5-0.6-0.6-1.1-0.2-1.7c2.2-3.6,4.4-7.2,6.6-10.8c0.5-0.8-0.1-0.5-0.4-0.5c-1.2,0-2.3,0-3.5,0
		c-1.4,0.1-2.7,0.5-4,0.9c-1.8,0.5-3.7,1-5.5,1.5c-2.1,0.5-4.2,1-6.3,1.6c-1.6,0.4-3.2,0.7-4.7,1.2c-2,0.6-4,1-5.9,1.6
		c-2.4,0.7-4.9,1.3-7.4,1.9c-0.4,0.1-0.8,0.4-1,0.8c-0.5,0.9-1,1.8-1.6,2.6c-2.6,4.3-5.3,8.6-7.8,13c-2,3.4-4,6.7-6,10
		c-0.7,1.2-1.4,2.4-2.1,3.5c-0.5,0.7-0.5,1.8,0,2.4c0.4,0.5,1.3-0.1,2-0.2c1.2-0.2,2.3-0.7,3.5-0.8c0.5,0,0.9,0.1,0.8,0.7
		c-0.1,1.2,0.3,2.4,0.3,3.6c0,0.9-0.2,2,0.6,2.8c1.9,1.9,3.8,3.9,5.7,5.8c1.1,1.1,2,2.5,3.6,3.1c1.6,0.6,3.3,0.7,4.9,1.5
		c0.3,0.2,0.6,0,0.9-0.2c1.7-0.9,3.4-1.8,5.2-2.6c0.9-0.4,1.7-0.8,2.7-0.1c0.8,0.6,1.8,1,2.7,1.3c2.7,1.1,5.6,1.6,8.5,1.8
		c2.6,0.2,5.2-0.3,7.7-1c2.1-0.5,4.1-1.3,5.9-2.5c4-2.4,7-5.6,9-9.8c1.1-2.5,1.7-5,1.8-7.6c0.2-3.9-0.8-7.7-3-11.1
		C102.2,190.3,101.7,189.1,100.4,188.4C100.4,188.4,100.4,188.4,100.4,188.4z M154.4,261.4c-0.3-0.4-0.4-0.7-0.5-0.9
		c-4.2-7.8-8.5-15.7-12.7-23.5c-3.9-7.3-7.8-14.6-11.8-21.8c-1.4-2.5-3.2-3-5.7-1.5c-12.7,7.4-25.4,14.7-38.1,22.1
		c-6.6,3.8-13.2,7.7-19.9,11.6c-1.1,0.7-1.7,1.7-1.7,2.9c0.1,1.4,1,2.3,2.4,2.8c1.1,0.4,2.2,0.8,3.3,1.2c9.7,3.9,18.6,9.2,27.1,15
		c14.6,10,27.8,21.6,40.2,34c6.4,6.4,12.4,13,18.3,19.8c1.9,2.2,4.7,2,6.1-0.5c0.5-0.8,0.9-1.7,1.4-2.5
		c6.7-11.1,14.3-21.6,22.4-31.9c6.1-7.9,12.5-15.5,19-23.1c5.2-6,10.6-11.8,16.1-17.6c6.5-6.8,13.2-13.3,20.3-19.6
		c7.4-6.6,15.1-12.9,23.7-18.1c4.3-2.6,8.8-4.9,13.7-6.2c2.6-0.7,3.6-2.5,2.5-4.8c-4.9-10.5-6.8-21.5-6.7-32.9
		c0.1-9.1,1.3-18.2,2.3-27.3c0.5-4.1,1-8.3,1.2-12.5c0.2-3-2.3-4.5-5.2-3.2c-1.1,0.5-2.2,1.1-3.3,1.7c-9.9,5.3-19,11.6-27.6,18.6
		c-6.7,5.5-13,11.4-19.1,17.6c-4.7,4.8-9.1,9.8-13.4,14.9c-8,9.5-15.4,19.5-22.4,29.7c-7.3,10.8-14.1,21.9-20.4,33.2
		c-3,5.5-6,11-8.7,16.6C156.5,257.1,155.5,259.1,154.4,261.4z M97.4,170.3c-0.1,0-0.2,0.1-0.2,0.2c-0.1,0.2,0.1,0.4,0.2,0.5
		c0.9,1,1.7,2.1,2.6,3.1c3.1,3.6,6.1,7.2,8.7,11.1c0.2,0.3,0.4,0.4,0.7,0.4c0.4,0,0.4-0.2,0.5-0.5c0.7-2,1.9-3.8,3.4-5.4
		c0.6-0.7,0.3-1-0.2-1.4c-1.7-1.1-3.4-2.1-5.1-3.1c-3-1.7-6.2-2.8-9.2-4.4C98.3,170.6,97.8,170.5,97.4,170.3z"/>
	<path class="st4" d="M303.5,124.6c-3.4-1.8-7.1-3.3-10.7-4.6c-4.9-1.9-10-3.5-15.1-4.9c-3.5-1-7-1.8-10.6-2.7
		c-4.6-1.1-9.3-2.1-13.9-2.9c-3.6-0.7-7.2-1.3-10.9-1.8c-4.1-0.6-8.3-1.2-12.4-1.8c-4.4-0.5-8.7-1-13.1-1.4
		c-3.4-0.4-6.8-0.6-10.2-0.9c-5.8-0.5-11.5-0.8-17.3-1.1c-3.6-0.2-7.2-0.3-10.8-0.4c-8.4-0.3-16.9-0.4-25.3-0.3
		c-6.2,0.1-12.3,0.2-18.5,0.6c-3.9,0.2-7.8,0.3-11.7,0.6c-4,0.3-7.9,0.5-11.9,0.9c-6.4,0.6-12.9,1.3-19.3,2.1
		c-5.1,0.6-10.1,1.4-15.1,2.3c-4.9,0.8-9.7,1.7-14.5,2.8c-3.9,0.8-7.8,1.8-11.7,2.9c-4.2,1.1-8.3,2.4-12.4,3.8
		c-4.8,1.7-9.5,3.5-13.9,5.9c-0.2,0.1-0.5,0.2-0.8,0.3c-0.2,0-0.4,0.1-0.4,0.3c0,0,0,0,0,0c-0.1,0-0.2,0-0.2,0.1
		c-0.2,0.1-0.4,0.2-0.7,0.4c-0.5-1.5-0.3-3.1-0.1-4.6c0.1-0.7,1.3-0.9,1.9-1.3c3.8-2,7.8-3.7,11.9-5.2c3.7-1.3,7.5-2.7,11.4-3.7
		c0.3-0.1,0.6-0.1,0.7-0.5c0.1,0,0.3,0,0.4-0.1c0.1,0.2,0.3,0.2,0.5,0.1c1.9-0.6,3.9-1.1,5.9-1.6c2.9-0.8,5.9-1.5,8.9-2
		c0.4-0.1,0.7-0.1,0.9-0.5c0.1,0,0.3,0,0.4,0c0.5,0.3,1,0.2,1.4,0c1.2-0.4,2.4-0.6,3.6-0.8c3.3-0.7,6.7-1.1,10-1.7
		c0.5-0.1,1.1-0.1,1.4-0.5c0.2,0,0.4,0,0.5,0c0.6,0.2,1.1,0.1,1.7,0c3.1-0.6,6.3-0.8,9.5-1.4c1.2-0.2,2.5,0.1,3.6-0.6
		c0.1,0,0.3,0,0.4,0c0.3,0.2,0.6,0.1,0.9,0.1c1.4,0.1,2.7-0.4,4.1-0.4c0.8,0,1.2-0.3,0.9-1.2c-1.1-2.9-2.2-5.7-3.3-8.6
		c-1.3-3.3-2.5-6.7-3.8-10c-0.2-0.5-0.5-0.7-1-0.4c-0.1,0-0.3,0-0.4,0c-0.3-0.3-0.7-0.1-1-0.1c-1.1-0.1-2,0.4-3.1,0.5
		c-1.9,0-3.8,0.4-5.6,0.7c-3.1,0.5-6.3,0.9-9.4,1.5c-1.1,0.2-2.2,0.3-3.3,0.6c-2.4,0.5-4.7,0.9-7.1,1.4c-1.4,0.3-2.8,0.2-4,1.1
		c-0.1,0-0.3,0-0.4,0.1c-0.7-0.4-1.3,0.2-1.9,0.3c-1.9,0.3-3.7,0.8-5.6,1.3c-1.6,0.4-3.1,0.8-4.7,1.3c-1.9,0.5-3.9,1.1-5.8,1.7
		c-0.2,0.1-0.5,0.2-0.5,0.4c-0.1,0-0.3,0-0.4,0.1c-0.1-0.2-0.3-0.1-0.5-0.1c-5.3,1.8-10.5,3.8-15.5,6.2c-0.4,0.2-1.1,0.3-1.2,0.9
		c-0.7,0.4-1.4,0.7-2.1,1.1c-0.2,0-0.3,0-0.5,0c-0.1-0.1-0.1-0.3-0.2-0.4c0-0.1,0-0.3,0-0.4c0.3-0.4,0.2-0.8,0.2-1.2
		c0-15.6,0-31.2,0-46.8c0-1,0.4-1.5,1.3-2c2.9-1.7,6-3,9.1-4.2c4.3-1.7,8.6-3.2,13.1-4.5c3.1-0.9,6.2-1.8,9.3-2.6
		c3.2-0.9,6.6-1.5,9.9-2.2c2.5-0.5,5-1.1,7.5-1.5c5.5-1,11-1.9,16.5-2.6c4.1-0.5,8.1-1,12.2-1.5c2.4-0.3,4.8-0.4,7.1-0.7
		c5-0.6,10.1-0.6,15.1-1.2c1.4-0.2,2.8-0.2,4.2-0.2c3.8,0,7.6-0.4,11.3-0.5c8.4-0.4,16.9-0.4,25.3-0.4c0.2,0,0.5,0,0.7-0.2
		c1.1,0,2.2,0,3.2,0c0.4,0.3,0.9,0.3,1.3,0c0.1,0,0.3,0,0.4,0c0.3,0.3,0.7,0.2,1.1,0.2c1.5,0,3,0,4.5,0.1c2.9,0.1,5.7,0.5,8.6,0.3
		c1,0,2,0,3,0c0.3,0.4,0.6,0.2,1,0.2c0.8,0.1,1.6,0.1,2.4,0.1c1.6,0.1,3.2,0.1,4.7,0.1c1.3,0,2.6,0,3.8,0c1.1,0.6,2.3,0.6,3.5,0.4
		c0.7,0.2,1.4,0.2,2.2,0.2c1.5,0.4,3,0.5,4.5,0.4c0.1,0,0.3,0,0.4,0c1.8,0.3,3.6,0.6,5.4,0.6c0.5,0,1,0,1.5,0.1
		c1.4,0.4,2.8,0.6,4.3,0.5c0.5,0,1,0.1,1.5,0.1c0.8,0.4,1.7,0.5,2.6,0.4c0.4,0,0.7,0,1.1,0c1.1,0.3,2.2,0.6,3.4,0.5
		c0.6,0,1.1,0,1.7,0c0.2,0.3,0.4,0.5,0.7,0.2c0.1,0,0.3,0,0.4,0c0.1,0.4,0.4,0.4,0.7,0.3c0.4,0,0.8,0,1.3,0.1
		c0.3,0.3,0.7,0.3,1.1,0.1c0.1,0,0.2,0,0.4,0c0.5,0.6,1.1,0.5,1.8,0.5c0.3,0.1,0.7-0.1,1-0.1c0.5,0.6,1.3,0.6,2,0.5
		c0.4,0,0.7,0,1.1,0c0.2,0.3,0.6,0.2,0.9,0.2c0.1,0,0.3,0,0.4,0c0.4,0.4,0.9,0.5,1.5,0.3c0.3,0,0.6,0.1,0.8,0.1
		c0.5,0.3,1.1,0.4,1.7,0.4c0.2,0,0.4,0,0.6,0c0.8,0.3,1.7,0.6,2.6,0.4c0.4,0.1,0.9,0.1,1.3,0.2c0.4,0.4,0.9,0.5,1.5,0.4
		c0.2,0,0.4,0,0.6,0c0.8,0.2,1.5,0.7,2.4,0.5c0.3,0,0.5,0,0.8,0c0.4,0.6,1,0.6,1.6,0.5c0.1,0,0.3,0,0.4,0c0.8,0.3,1.5,0.6,2.4,0.5
		c0.3,0,0.5,0,0.8,0c0.3,0.4,0.7,0.6,1.2,0.5c0.1,0,0.3,0,0.4,0c0.8,0.2,1.5,0.6,2.4,0.5c0.2,0,0.4,0,0.6,0c0.2,0.5,0.6,0.6,1.1,0.3
		c0.1,0,0.2,0,0.4,0c0.6,0.5,1.5,0.6,2.2,0.7c0.2,0,0.4,0,0.6,0c0.3,0.3,0.7,0.4,1.1,0.4c0.1,0,0.3,0,0.4,0.1c0.5,0.3,1,0.4,1.5,0.4
		c0.3,0.2,0.7,0.2,1.1,0.2c0.5,0.5,1.1,0.5,1.7,0.5c0.1,0,0.3,0,0.4,0c0.2,0.3,0.5,0.4,0.9,0.4c0.1,0,0.3,0,0.4,0
		c0.3,0.3,0.7,0.4,1.1,0.4c0.2,0,0.4,0,0.6,0.1c0.5,0.2,0.9,0.6,1.5,0.5c0.1,0,0.3,0,0.4,0c0.4,0.4,0.9,0.7,1.5,0.4
		c0.2,0,0.4,0,0.6,0c0.1,0.3,0.3,0.6,0.7,0.5c0.1,0,0.3,0,0.4,0c0.3,0.3,0.7,0.4,1.1,0.4c0.3,0,0.5,0.1,0.8,0.1
		c0.1,0.2,0.2,0.4,0.5,0.3c0.3,0,0.5,0.1,0.8,0.1c0.2,0.3,0.5,0.5,1,0.5c3,0.9,6,2.1,8.8,3.3c1.8,0.8,3.5,1.6,5.2,2.3
		c0.9,0.4,1.2,0.9,1.2,1.8c0,2.8,0,5.7,0,8.5c0,13.2,0,26.4,0,39.6c0,0.3,0,0.5,0,0.8c0,0,0,0.1,0,0.1s0.1,0.1,0.1,0.1
		c-0.1,0-0.3-0.1-0.4-0.1c-0.1-0.2-0.3-0.2-0.5-0.1c-1.1-0.5-2.3-1.1-3.4-1.6c-4.2-1.9-8.7-3.5-13.1-5c-4.2-1.4-8.4-2.6-12.7-3.7
		c-3.2-0.8-6.3-1.6-9.5-2.3c-3.7-0.8-7.3-1.5-11-2.2c-4-0.7-8-1.4-12-2c-2.5-0.4-5.1-0.7-7.6-1.1c-0.9-0.2-1.2,0-1.4,0.7
		c-0.7,1.8-1.3,3.6-2,5.4c-1.6,4.1-3.1,8.1-4.7,12.2c-0.5,1.3-0.5,1.3,1,1.5c4.1,0.5,8.3,1,12.4,1.7c3.9,0.6,7.8,1.2,11.6,1.9
		c4.2,0.8,8.4,1.6,12.5,2.4c2.8,0.6,5.5,1.3,8.2,2c3.4,0.9,6.8,1.8,10.2,2.7c4,1.1,7.9,2.5,11.7,3.9c0.1,0.1,0.1,0.1,0.2,0
		c1.3,0.5,2.5,1,3.8,1.5c0.1,0.1,0.2,0.1,0.3,0.1c0.2,0.1,0.4,0.2,0.6,0.4c0.1,0.1,0.2,0.1,0.3,0.1l0,0c0.1,0.2,0.4,0.3,0.6,0.2
		l0.1,0l0,0.1c0,0.2,0.1,0.2,0.3,0.2c0.3,0.1,0.6,0.2,0.9,0.4c0,0.1,0,0.2,0.2,0.1c0.8,0.4,1.6,0.8,2.4,1.1c0,0.1,0.1,0.2,0.2,0.1
		c0.3,0.2,0.7,0.3,1,0.5c0.4,1.6,0.1,3.2,0.2,4.8C304,124.5,303.7,124.5,303.5,124.6z M184.3,94.4C184.3,94.4,184.3,94.4,184.3,94.4
		c0,0.6,0,1.2-0.1,1.8c-0.1,0.7,0.2,0.9,0.9,0.9c1.6,0,3.2,0.2,4.8,0.3c6.4,0.2,12.8,0.8,19.3,1.2c3.4,0.2,6.8,0.6,10.2,1
		c0.7,0.1,1-0.1,1.2-0.8c1.2-3.4,2.6-6.7,3.8-10.1c1.5-4.2,3.2-8.3,4.8-12.5c1.2-3.1,2.4-6.2,3.6-9.3c0.8-2.1,1.5-4.1,2.3-6.2
		c0.1-0.2,0.3-0.5,0.1-0.7c-0.2-0.2-0.5,0-0.7,0.1c-2.2,0.7-4.4,1.4-6.6,2.2c-3.8,1.3-7.6,2.6-11.4,3.8c-3.3,1.1-6.6,2.2-9.9,3.3
		c-3.3,1.1-6.7,2.2-10,3.3c-3.2,1.1-6.4,2.2-9.7,3.2c-1,0.3-1.5,0.9-1.5,1.8c0,1.1-0.1,2.2-0.1,3.3C185,85.5,184.6,89.9,184.3,94.4z
		 M140.2,97.2c0-0.1,0-0.2,0-0.3c1,0,1.9,0,2.9,0c0.7,0,0.9-0.3,0.9-1c-0.2-2.2-0.4-4.4-0.5-6.6c-0.3-4-0.6-8-0.8-12
		c0-0.8-0.4-1.2-1.1-1.4c-1.7-0.5-3.5-1.1-5.2-1.7c-5.3-1.8-10.7-3.6-16-5.4c-5.3-1.8-10.7-3.5-16-5.3c-3.5-1.2-7-2.4-10.5-3.5
		C93.6,60,93.3,59.6,93,60c-0.2,0.3,0,0.6,0.1,0.9c0.7,1.8,1.4,3.7,2.1,5.5c1.5,3.9,2.9,7.8,4.4,11.7c1.6,4.1,3.1,8.2,4.7,12.3
		c1,2.6,2,5.1,2.9,7.7c0.3,0.7,0.7,1,1.4,0.9c2.8-0.5,5.7-0.5,8.5-0.8c4.9-0.4,9.9-0.7,14.9-0.9C134.8,97.1,137.5,97.2,140.2,97.2z
		 M159.4,96.6c6,0,11.2,0,16.3,0.3c0.7,0,1-0.1,1.1-0.8c0.1-1,0.2-2,0.3-3c0.5-5.7,0.9-11.3,1.5-17c0.1-1.1-0.4-1.3-1.2-1.6
		c-2.2-0.7-4.4-1-6.7-1.3c-5.5-0.7-10.9-0.5-16.3,0.4c-1.3,0.2-2.6,0.6-3.9,1c-0.5,0.1-1,0.3-0.9,1c0.4,3.8,0.7,7.6,1,11.4
		c0.3,3,0.5,5.9,0.8,8.9c0,0.4,0,0.8,0.7,0.7C154.8,96.4,157.5,96.7,159.4,96.6z M221.6,56.2c-1.2-0.1-2.4-0.1-3.6-0.2
		c-2.9-0.2-5.5-1.3-8.3-2.1c-4.7-1.3-9.5-2.1-14.3-2.3c-6.8-0.3-13.4,0.7-19.5,3.7c-4.1,2-7.8,4.6-10.3,8.3c-0.4,0.5-1.2,1-0.9,1.6
		c0.3,0.5,1.3,0.2,1.9,0.2c5.5,0.1,10.9,0.6,15.9,3.2c0.6,0.3,1.2,0.3,1.9,0.2c2.5-0.6,5-1.5,7.4-2.3c5-1.6,10-3.3,15-4.9
		c3.4-1.1,6.8-2.2,10.2-3.3C218.5,57.5,220.2,57.1,221.6,56.2z M106.4,56.3c1.5,0.7,3,1.1,4.4,1.6c3.8,1.3,7.6,2.5,11.4,3.8
		c3.5,1.1,6.9,2.3,10.4,3.4c3.5,1.1,7,2.3,10.4,3.4c1.2,0.4,2.3,0.3,3.5-0.3c2.5-1.3,5.3-1.9,8.2-2.3c2.7-0.4,5.5-0.5,8.2-0.5
		c0.8,0,0.9-0.2,0.5-0.8c-2.3-3.6-5.5-6.2-9.2-8.3c-5.9-3.3-12.5-4.6-19.3-4.7c-3.8,0-7.5,0.5-11.2,1.2c-2.3,0.4-4.5,1-6.7,1.7
		c-2.9,0.9-5.9,1.8-9,1.8C107.5,56.1,106.9,56,106.4,56.3z M296.6,54.5c0-0.4-0.4-0.4-0.7-0.4c-1.2-0.2-2.4-0.3-3.6-0.5
		c-0.5-0.1-0.8-0.2-1-0.6c-0.5-1.1-1.1-2.1-1.6-3.2c-0.1-0.2,0-0.6-0.4-0.6c-0.4,0-0.5,0.4-0.6,0.6c-0.6,1.1-1.1,2.1-1.7,3.2
		c-0.2,0.4-0.5,0.6-1,0.7c-1.2,0.1-2.4,0.5-3.6,0.5c-0.3,0-0.6,0-0.7,0.3c-0.2,0.4,0.1,0.6,0.4,0.8c0.8,0.7,1.6,1.4,2.4,2.1
		c0.4,0.3,0.8,0.7,0.6,1.3c-0.3,1.2-0.5,2.4-0.7,3.6c0,0.2-0.1,0.5,0.1,0.7c0.2,0.2,0.5,0,0.7-0.1c1.1-0.5,2.3-1.1,3.4-1.7
		c0.4-0.2,0.8-0.2,1.2,0c1.1,0.6,2.2,1.1,3.3,1.6c0.2,0.1,0.4,0.4,0.7,0.3c0.3-0.2,0.2-0.5,0.2-0.7c-0.2-1.1-0.4-2.2-0.6-3.3
		c-0.2-0.7,0-1.2,0.6-1.6c0.8-0.7,1.6-1.4,2.4-2.1C296.5,55,296.6,54.8,296.6,54.5z M221.6,49.2c0,0.1-0.1,0.4,0.1,0.6
		c0.3,0.2,0.4-0.1,0.7-0.2c0.9-0.5,1.9-0.8,2.7-1.4c0.9-0.6,1.7-0.5,2.6,0c0.9,0.5,1.8,0.9,2.8,1.4c0.7,0.3,0.9,0.1,0.7-0.5
		c-0.4-1.1-0.3-2.3-0.6-3.4c-0.2-0.6-0.1-1,0.4-1.4c0.9-0.7,1.7-1.5,2.6-2.3c0.2-0.2,0.5-0.3,0.4-0.6c-0.1-0.3-0.5-0.3-0.7-0.3
		c-1-0.1-2-0.3-3-0.4c-0.8-0.1-1.5-0.4-1.8-1.2c-0.4-1-1-1.9-1.4-2.8c-0.1-0.2-0.3-0.5-0.6-0.6c-0.4-0.1-0.4,0.3-0.5,0.5
		c-0.5,0.9-1.1,1.8-1.4,2.7c-0.3,0.8-0.8,1.1-1.6,1.2c-1.1,0.1-2.2,0.3-3.3,0.4c-0.2,0-0.5,0.1-0.6,0.3c-0.1,0.3,0.2,0.5,0.4,0.6
		c0.8,0.7,1.6,1.5,2.4,2.2c0.5,0.4,0.7,0.9,0.6,1.5C221.9,46.8,221.8,47.9,221.6,49.2z M33.1,61.1c0,0.7,0.1,1,0.8,0.6
		c1-0.6,2-1,3-1.5c0.7-0.3,1.2-0.5,2,0c1,0.6,2.1,1,3.1,1.6c0.8,0.5,0.8,0.1,0.7-0.5c-0.2-1.1-0.4-2.3-0.7-3.4c-0.1-0.6,0-1,0.5-1.5
		c0.8-0.7,1.6-1.4,2.4-2.2c0.2-0.2,0.6-0.4,0.5-0.7c-0.1-0.4-0.5-0.4-0.8-0.4c-1.1-0.1-2.3-0.2-3.4-0.4c-0.7-0.1-1-0.4-1.3-1
		c-0.4-1-1-1.9-1.5-2.9c-0.1-0.2-0.2-0.4-0.5-0.5c-0.3,0-0.4,0.2-0.5,0.4c-0.5,1-1.1,2-1.5,3c-0.3,0.6-0.7,0.9-1.4,1
		c-1.1,0.1-2.3,0.3-3.4,0.5c-0.3,0-0.6,0-0.7,0.4c-0.1,0.3,0.1,0.5,0.4,0.7c0.8,0.7,1.5,1.4,2.3,2.1c0.5,0.4,0.8,0.9,0.6,1.6
		C33.5,59,33.4,60.2,33.1,61.1z M95.8,49.2c1-0.2,1.7-0.6,2.4-1c1.6-1.2,3.2-1.2,4.9-0.1c0.4,0.3,0.9,0.5,1.4,0.8
		c0.2,0.1,0.5,0.4,0.8,0.2c0.3-0.2,0.2-0.5,0.2-0.8c-0.2-1.1-0.5-2.2-0.6-3.3c0-0.5,0.1-0.9,0.5-1.3c0.9-0.8,1.7-1.6,2.5-2.4
		c0.2-0.2,0.4-0.4,0.4-0.7c-0.1-0.3-0.5-0.3-0.7-0.3c-1.2,0-2.4-0.3-3.6-0.5c-0.5-0.1-0.9-0.3-1.1-0.7c-0.5-1-1.1-2.1-1.6-3.1
		c-0.1-0.2-0.1-0.6-0.4-0.6c-0.4,0-0.5,0.4-0.6,0.6c-0.5,0.8-0.9,1.7-1.3,2.6c-0.4,0.8-0.8,1.3-1.9,1.4c-1.1,0.1-2.1,0.3-3.2,0.4
		c-0.2,0-0.6,0-0.7,0.2c-0.1,0.2,0.1,0.5,0.3,0.6c0.9,0.8,1.7,1.7,2.6,2.4c0.6,0.5,0.6,1,0.5,1.6C96.3,46.5,96.1,47.8,95.8,49.2z
		 M158.8,45.3c0,0.1-0.1,0.4,0.2,0.5c0.3,0.1,0.5,0,0.7-0.1c1.1-0.5,2.1-1.1,3.2-1.6c0.5-0.2,0.8-0.2,1.3,0c1,0.6,2.1,1.1,3.2,1.6
		c0.3,0.1,0.5,0.2,0.8,0.1c0.2-0.1,0.1-0.3,0.1-0.5c-0.3-1.1-0.2-2.2-0.6-3.3c-0.2-0.6-0.1-1.1,0.4-1.5c0.9-0.7,1.7-1.5,2.6-2.3
		c0.2-0.2,0.5-0.4,0.4-0.8c-0.1-0.3-0.5-0.2-0.8-0.2c-1.2-0.2-2.4-0.4-3.6-0.5c-0.5-0.1-0.8-0.3-1-0.7c-0.5-1.1-1.2-2.2-1.8-3.4
		c-0.2-0.5-0.5-0.7-0.8,0c-0.5,1-1.1,2-1.6,3c-0.3,0.6-0.7,1.1-1.6,1.1c-1.2,0.1-2.3,0.3-3.5,0.5c-0.2,0-0.5,0-0.5,0.2
		c0,0.2,0.2,0.4,0.3,0.5c0.7,0.7,1.4,1.5,2.3,2.1c0.9,0.7,1.1,1.5,0.8,2.5C158.9,43.4,159,44.3,158.8,45.3z"/>
	<path class="st5" d="M303.8,119.5c-0.3-0.2-0.7-0.3-1-0.5c0-0.1-0.1-0.1-0.2-0.1c-0.8-0.4-1.6-0.8-2.4-1.1c0-0.1-0.1-0.1-0.2-0.1
		c-0.3-0.1-0.6-0.2-0.9-0.4c0-0.1-0.1-0.2-0.3-0.2l0-0.1c0,0-0.1,0-0.1,0c-0.1-0.4-0.3-0.3-0.6-0.2c0,0,0,0,0,0
		c-0.1-0.1-0.2-0.2-0.3-0.1c-0.2-0.1-0.4-0.2-0.6-0.4c-0.1-0.2-0.1-0.2-0.3-0.1c-1.3-0.5-2.5-1-3.8-1.5c-0.1-0.1-0.1-0.1-0.2,0
		c-3.9-1.4-7.8-2.8-11.7-3.9c-3.4-1-6.8-1.9-10.2-2.7c-2.7-0.7-5.5-1.4-8.2-2c-4.2-0.9-8.3-1.6-12.5-2.4c-3.9-0.7-7.7-1.3-11.6-1.9
		c-4.1-0.6-8.3-1.1-12.4-1.7c-1.5-0.2-1.5-0.2-1-1.5c1.6-4.1,3.1-8.1,4.7-12.2c0.7-1.8,1.4-3.6,2-5.4c0.2-0.7,0.6-0.9,1.4-0.7
		c2.5,0.5,5.1,0.7,7.6,1.1c4,0.6,8,1.3,12,2c3.7,0.7,7.4,1.4,11,2.2c3.2,0.7,6.4,1.5,9.5,2.3c4.3,1.1,8.5,2.3,12.7,3.7
		c4.5,1.5,8.9,3,13.1,5c1.1,0.5,2.3,1,3.4,1.6c0.1,0.2,0.3,0.2,0.5,0.1c0.1,0,0.3,0.1,0.4,0.1c0.2,1,0.2,2.1,0.2,3.1
		c0,5.5,0,11,0,16.5C304,118.7,304.1,119.1,303.8,119.5z"/>
	<path class="st1" d="M147,358.2c1.2,0.4,2.2,1.3,3.2,1.9c3.9,2.5,7.8,5.1,11.8,7.7c0.3,0.2,0.7,0.3,1.1,0.4
		c-0.1,0.2-0.2,0.4-0.4,0.6c-0.9-0.9-2.1-1.3-3.1-2c-1.9-1.1-3.6-2.4-5.4-3.6c-2.1-1.3-4.2-2.7-6.3-4.1
		C147.5,358.9,147,358.8,147,358.2z"/>
	<path class="st5" d="M94.4,79.6c0.1,0,0.3,0,0.4,0c0.2,0.2,0.6,0.2,0.7,0.7c1,2.9,2.2,5.7,3.2,8.6c1.2,3.2,2.4,6.4,3.6,9.6
		c0.3,0.8,0.2,1.1-0.7,1.1c-1.6,0-3.2,0.2-4.7,0.6c-0.1,0-0.3,0-0.4,0c-0.5-0.2-1.1-0.1-1.6,0c-3.8,0.5-7.5,1-11.3,1.5
		c-0.6,0.1-1.3,0.2-1.9,0.5c-0.2,0-0.4,0-0.5,0c-1.5-0.2-2.9,0.3-4.3,0.5c-2.7,0.3-5.5,0.9-8.2,1.5c-1.4,0.3-2.9,0.2-4.1,1
		c-0.1,0-0.3,0-0.4,0c-0.2,0-0.5-0.1-0.7,0c-1.6,0.4-3.1,0.7-4.7,1c-2.7,0.6-5.5,1.3-8.1,2.1c-0.9,0.3-2,0.1-2.6,0.9
		c-0.1,0-0.3,0-0.4,0.1c-0.8-0.2-1.5,0.3-2.2,0.5c-5.2,1.6-10.3,3.3-15.3,5.4c-2.6,1.1-5.2,2.3-7.7,3.7c-0.6,0.4-0.9,0.3-0.9-0.5
		c0-6.3,0-12.6,0-18.8c0-0.5,0.3-0.8,0.5-1.2c0.7-0.4,1.4-0.7,2.1-1.1c0,0,0.1,0.1,0.1,0.1c5-2.3,10-4.4,15.3-6.2
		c0.6-0.2,1.5-0.1,1.9-0.8c0.1,0,0.3,0,0.4-0.1c0.3,0.2,0.6,0,0.9-0.1c0.8-0.3,1.6-0.6,2.4-0.8c2.2-0.6,4.3-1.2,6.5-1.8
		c1.7-0.5,3.5-0.8,5.2-1.4c1.2-0.4,2.5-0.2,3.5-1c0.1,0,0.3,0,0.4-0.1c0.5,0.2,0.9,0.1,1.4-0.1c1.2-0.3,2.4-0.6,3.6-0.8
		c2.1-0.4,4.3-0.7,6.4-1.2c3.6-0.8,7.3-1.2,10.9-1.9c3-0.5,6.1-0.8,9.1-1.2C93,80,93.7,80,94.4,79.6z"/>
	<path class="st2" d="M72,294.7c0,0.2,0.2,0.3,0.3,0.5c0.3,0.4-0.1,0.8-0.4,0.8c-0.8-0.1-1.5-0.6-2.2,0.3c-0.1,0.1-0.3-0.2-0.3-0.4
		c0-0.3-0.1-0.6,0.3-0.8C70.5,294.7,71.2,294.6,72,294.7C72,294.7,72,294.7,72,294.7z"/>
	<path class="st2" d="M74.5,296.1c0.2,0.2,0.3,0.4,0.5,0.7c0,0.2,0,0.5,0,0.7l0,0c-0.5-0.1-1-0.7-1.6-0.1c0.4-0.8,0.6-1.5-0.3-2
		c-0.2-0.1-0.2-0.3,0-0.4c0.1-0.1,0.3,0,0.5,0c0,0,0,0,0,0c0.1,0.1,0.1,0.1,0.2,0.2c0,0,0,0,0,0c0.1,0.1,0.1,0.1,0.2,0.2
		c0,0,0,0,0,0C73.9,295.9,74.1,296.1,74.5,296.1z"/>
	<path class="st2" d="M72.8,294.2c-0.1,0.4-0.3,0.5-0.7,0.5c0,0,0,0,0,0c-0.1-1-0.5-1.2-1.5-0.9c-0.2,0.1-0.4,0.1-0.5-0.1
		c-0.2-0.2-0.2-0.5,0-0.5c0.5-0.2,0.6-0.8,1.2-0.8c0,0,0,0,0,0c0.1,0.1,0.1,0.1,0.2,0.2c0,0,0,0,0,0c0.1,0.1,0.1,0.1,0.2,0.2
		c0,0,0,0,0,0c0.1,0.1,0.1,0.1,0.2,0.2c0,0,0,0,0,0c0,0.5,0.3,0.7,0.7,0.9c0,0,0,0,0,0C72.5,294.2,72.6,294.2,72.8,294.2L72.8,294.2
		z"/>
	<path class="st2" d="M21.5,98c0.1,0.1,0.1,0.3,0.2,0.4C21.4,98.4,21.2,98.3,21.5,98z"/>
	<path class="st2" d="M75.5,297.9c-0.3,0-0.4-0.1-0.4-0.4c0,0,0,0,0,0C75.3,297.5,75.5,297.7,75.5,297.9L75.5,297.9z"/>
	<path class="st1" d="M145.8,24.9c-0.1,0.1-0.2,0.1-0.3,0.1c-0.2,0-0.3-0.1-0.2-0.2c0-0.1,0.2-0.1,0.3-0.1
		C145.6,24.7,145.7,24.8,145.8,24.9z"/>
	<path class="st2" d="M183.5,25.8c-2.9,0.2-5.7-0.2-8.6-0.3c-1.5-0.1-3,0-4.5-0.1c-0.4,0-0.8,0.1-1.1-0.2c0.1-0.2,0.3-0.2,0.6-0.2
		c3.5,0,7,0,10.5,0.4c0.7,0.1,1.5,0,2.2,0C182.9,25.5,183.3,25.4,183.5,25.8z"/>
	<path class="st2" d="M194.6,26.3c-1.6,0-3.2,0.1-4.7-0.1c-0.8-0.1-1.6-0.1-2.4-0.1c-0.3,0-0.7,0.1-1-0.2c1-0.4,2-0.2,2.9-0.1
		c1.2,0.2,2.4,0.1,3.6,0.1C193.6,25.9,194.1,25.9,194.6,26.3z"/>
	<path class="st2" d="M214.4,27.9c-1.8,0-3.6-0.3-5.4-0.6c1.3-0.2,2.7-0.5,4,0.1C213.5,27.6,214.1,27.2,214.4,27.9z"/>
	<path class="st2" d="M208.6,27.3c-1.5,0.1-3,0-4.5-0.4c1.5-0.4,2.9,0.2,4.4,0.1C208.5,27,208.6,27.2,208.6,27.3z"/>
	<path class="st2" d="M220.2,28.4c-1.5,0.1-2.9,0-4.3-0.5C217.4,27.6,218.8,27.9,220.2,28.4z"/>
	<path class="st2" d="M201.9,26.7c-1.2,0.3-2.4,0.2-3.5-0.4C199.6,26.3,200.8,26.3,201.9,26.7z"/>
	<path class="st2" d="M228.8,29.4c-1.2,0.2-2.3-0.1-3.4-0.5C226.6,28.6,227.7,28.9,228.8,29.4z"/>
	<path class="st2" d="M260.4,34.5c-0.9,0.2-1.6-0.2-2.4-0.5C259,33.6,259.7,33.9,260.4,34.5z"/>
	<path class="st2" d="M224.3,28.9c-0.9,0.1-1.8,0-2.6-0.4C222.7,28.2,223.5,28.3,224.3,28.9z"/>
	<path class="st2" d="M249.5,32.4c-0.9,0.1-1.7-0.2-2.6-0.4C247.8,31.7,248.7,31.9,249.5,32.4z"/>
	<path class="st2" d="M265.2,35.6c-0.9,0-1.6-0.3-2.4-0.5C263.7,34.8,264.5,34.9,265.2,35.6z"/>
	<path class="st2" d="M239.8,30.9c-0.7,0.1-1.5,0.1-2-0.5C238.5,30.5,239.4,29.9,239.8,30.9z"/>
	<path class="st2" d="M255.3,33.5c-0.9,0.3-1.6-0.2-2.4-0.5C253.8,32.7,254.5,33,255.3,33.5z"/>
	<path class="st2" d="M269.5,36.6c-0.8-0.1-1.6-0.2-2.2-0.7C268.1,35.9,268.9,35.9,269.5,36.6z"/>
	<path class="st2" d="M246.2,32c-0.6,0-1.2-0.1-1.7-0.4C245.2,31.3,245.8,31.3,246.2,32z"/>
	<path class="st2" d="M282.8,40.2c-0.6,0.2-1.1-0.1-1.5-0.4C282,39.3,282.3,39.9,282.8,40.2z"/>
	<path class="st2" d="M275.9,38.2c-0.6-0.1-1.3,0-1.7-0.5C274.9,37.4,275.4,37.8,275.9,38.2z"/>
	<path class="st2" d="M257.6,34c-0.6,0.1-1.2,0.1-1.6-0.5C256.7,33.4,257.3,33.4,257.6,34z"/>
	<path class="st2" d="M236.8,30.5c-0.7,0.1-1.3,0.1-1.8-0.5C235.6,30.1,236.3,30,236.8,30.5z"/>
	<path class="st2" d="M252.3,33c-0.6,0.1-1.1,0-1.5-0.4C251.4,32.4,251.9,32.5,252.3,33z"/>
	<path class="st2" d="M273.1,37.5c-0.5,0-1.1-0.1-1.5-0.4C272.3,36.7,272.7,36.9,273.1,37.5z"/>
	<path class="st2" d="M243.7,31.5c-0.6,0.2-1.1,0-1.5-0.3C242.7,31,243.2,31.1,243.7,31.5z"/>
	<path class="st2" d="M280.9,39.7c-0.6,0-1-0.3-1.5-0.5C280,38.9,280.5,39.2,280.9,39.7z"/>
	<path class="st2" d="M266.9,35.9c-0.5,0.3-0.8,0.2-1.1-0.3C266.3,35.3,266.6,35.4,266.9,35.9z"/>
	<path class="st2" d="M262.4,35c-0.5,0.1-0.9-0.1-1.2-0.5C261.7,34.4,262.2,34.4,262.4,35z"/>
	<path class="st2" d="M168.8,25.3c-0.4,0.3-0.9,0.3-1.3,0C168,25,168.4,25,168.8,25.3z"/>
	<path class="st2" d="M271.2,37c-0.4,0-0.8-0.1-1.1-0.4C270.6,36.3,271,36.5,271.2,37z"/>
	<path class="st2" d="M278.7,39.1c-0.4,0-0.8-0.1-1.1-0.4C278.2,38.4,278.5,38.5,278.7,39.1z"/>
	<path class="st2" d="M234.6,30c-0.4,0.2-0.7,0.2-1.1-0.1C233.9,29.7,234.3,29.6,234.6,30z"/>
	<path class="st2" d="M285.6,41.1c-0.4,0-0.8-0.1-1.1-0.4C285.1,40.4,285.4,40.7,285.6,41.1z"/>
	<path class="st2" d="M277.2,38.7c-0.4,0.1-0.7-0.1-0.9-0.4C276.9,37.9,277.1,38.3,277.2,38.7z"/>
	<path class="st2" d="M288.6,42.2c-0.4,0-0.7-0.2-1-0.5C288.1,41.5,288.5,41.6,288.6,42.2z"/>
	<path class="st2" d="M241.7,31.1c-0.3,0-0.6,0.1-0.9-0.2C241.2,30.7,241.5,30.7,241.7,31.1z"/>
	<path class="st2" d="M284.1,40.7c-0.4,0.1-0.6-0.2-0.7-0.5C283.8,40.1,284,40.3,284.1,40.7z"/>
	<path class="st2" d="M231.2,29.6c-0.3,0.3-0.6,0.2-0.7-0.2C230.7,29.4,231,29.3,231.2,29.6z"/>
	<path class="st2" d="M232.3,29.9c-0.3,0.1-0.6,0.1-0.7-0.3C231.9,29.5,232.2,29.5,232.3,29.9z"/>
	<path class="st2" d="M286.9,41.6c-0.3,0-0.4-0.1-0.5-0.3C286.7,41.2,286.8,41.3,286.9,41.6z"/>
	<path class="st1" d="M100.9,322.4c1.5,0.9,2.7,2.2,4,3.3c3,2.5,5.9,5,8.8,7.5c5.1,4.3,10.3,8.3,15.6,12.3c2.8,2.1,5.7,4.2,8.5,6.2
		c0.2,0.1,0.4,0.2,0.4,0.5c-1.2-0.1-1.8-1-2.7-1.6c-2.2-1.5-4.3-3.1-6.4-4.7c-4-2.9-7.8-6.1-11.7-9.1c-3.8-3-7.4-6.2-11.2-9.2
		c-1.8-1.4-3.3-3-5-4.4C101.1,322.9,100.8,322.7,100.9,322.4z"/>
	<path class="st1" d="M90.1,312.4c1.3,0.5,2,1.6,2.9,2.5c2.4,2.1,4.7,4.3,7,6.5c0.2,0.2,0.4,0.3,0.4,0.6c-1.3-0.5-2-1.6-2.9-2.4
		c-1.4-1.4-3-2.7-4.4-4.1C92.1,314.4,90.8,313.6,90.1,312.4z"/>
	<path class="st1" d="M78.9,301c1.7,1.2,3.1,2.8,4.3,4.5c-0.4,0-0.7-0.2-0.9-0.5c-1-1.3-2.1-2.4-3.3-3.5
		C78.9,301.4,79,301.1,78.9,301z"/>
	<path class="st1" d="M75.5,297.9c0-0.3-0.1-0.4-0.4-0.4c0-0.2,0-0.5,0-0.7c0.9,0.2,1.2,1,1.8,1.6c0.8,0.8,1.7,1.5,2.1,2.6
		c-1-0.6-1.6-1.7-2.6-2.4C76.1,298.4,75.9,298,75.5,297.9z"/>
	<path class="st1" d="M83.2,305.5c1.5,1.1,2.7,2.4,3.8,3.9C85.6,308.2,84.2,307.1,83.2,305.5z"/>
	<path class="st1" d="M87.1,309.3c1.2,0.9,2.3,1.8,3,3C88.8,311.6,87.8,310.6,87.1,309.3z"/>
	<path class="st1" d="M138.3,352.1c0.9,0.4,1.7,0.9,2.3,1.6C139.6,353.5,138.8,353,138.3,352.1z"/>
	<path class="st1" d="M100.4,322c0.2,0,0.4,0.1,0.4,0.4C100.6,322.4,100.4,322.2,100.4,322z"/>
	<path class="st1" d="M141.1,354.1c0.2,0,0.4,0,0.4,0.2C141.3,354.3,141.1,354.3,141.1,354.1z"/>
	<path class="st1" d="M142.8,355.3c0.2,0,0.4-0.1,0.4,0.2C143.1,355.6,142.9,355.5,142.8,355.3z"/>
	<path class="st1" d="M142.6,355.1c0.1,0.1,0.1,0.1,0.2,0.2C142.7,355.3,142.7,355.2,142.6,355.1z"/>
	<path class="st1" d="M142.4,355c0.1,0,0.2,0,0.2,0.2C142.5,355.1,142.4,355,142.4,355z"/>
	<path class="st1" d="M140.6,353.8c0.1,0,0.2,0,0.2,0.1C140.8,353.9,140.7,353.8,140.6,353.8z"/>
	<path class="st4" d="M154.4,261.4c1.1-2.2,2.1-4.2,3.1-6.2c2.8-5.6,5.7-11.1,8.7-16.6c6.3-11.4,13-22.4,20.4-33.2
		c7-10.2,14.4-20.2,22.4-29.7c4.3-5.1,8.7-10.1,13.4-14.9c6-6.2,12.3-12.1,19.1-17.6c8.6-7,17.7-13.3,27.6-18.6
		c1.1-0.6,2.2-1.2,3.3-1.7c2.8-1.3,5.3,0.2,5.2,3.2c-0.2,4.2-0.7,8.3-1.2,12.5c-1,9.1-2.3,18.1-2.3,27.3
		c-0.1,11.4,1.8,22.4,6.7,32.9c1.1,2.3,0.1,4.1-2.5,4.8c-5,1.3-9.4,3.6-13.7,6.2c-8.6,5.2-16.3,11.5-23.7,18.1
		c-7.1,6.3-13.8,12.8-20.3,19.6c-5.5,5.7-10.9,11.6-16.1,17.6c-6.6,7.5-12.9,15.2-19,23.1c-8,10.3-15.6,20.8-22.4,31.9
		c-0.5,0.8-1,1.7-1.4,2.5c-1.5,2.5-4.2,2.8-6.1,0.5c-5.8-6.8-11.9-13.5-18.3-19.8c-12.4-12.4-25.6-23.9-40.2-34
		c-8.5-5.8-17.4-11.1-27.1-15c-1.1-0.4-2.2-0.9-3.3-1.2c-1.4-0.5-2.3-1.4-2.4-2.8c-0.1-1.2,0.5-2.2,1.7-2.9
		c6.6-3.8,13.2-7.7,19.9-11.6c12.7-7.4,25.4-14.7,38.1-22.1c2.5-1.5,4.4-1,5.7,1.5c3.9,7.3,7.9,14.5,11.8,21.8
		c4.2,7.8,8.5,15.7,12.7,23.5C154,260.7,154.1,260.9,154.4,261.4z M154.6,268.6c-0.2-0.3-0.3-0.5-0.3-0.6
		c-3.5-6.4-6.9-12.9-10.4-19.3c-5.8-10.7-11.6-21.4-17.3-32.1c-0.4-0.7-0.7-0.8-1.3-0.3c-0.8,0.5-1.7,1-2.6,1.5
		c-17.8,10.3-35.6,20.6-53.3,30.9c-0.7,0.4-1.3,0.8-2.1,1.2c0.5,0.2,0.8,0.3,1.2,0.4c3.3,1.2,6.5,2.5,9.6,4.1
		c10,4.9,19.2,10.9,28,17.5c10.1,7.5,19.5,15.7,28.5,24.3c8.1,7.8,15.8,15.9,23,24.5c0.6,0.7,0.8,0.7,1.3-0.1
		c1.3-2.3,2.7-4.5,4.1-6.8c7.1-11.2,15-21.8,23.3-32.2c15.9-19.9,32.9-38.8,52.1-56c7.3-6.6,15-12.8,23.5-18
		c4.6-2.9,9.4-5.5,14.8-6.8c1-0.3,1.1-0.5,0.7-1.4c-3.9-8.7-6-17.8-6.6-27.2c-0.3-6-0.1-11.9,0.4-17.9c0.6-6.9,1.6-13.8,2.3-20.6
		c0.3-2.7,0.5-5.4,0.8-8.2c-0.4,0.2-0.6,0.3-0.8,0.4c-6.3,3.2-12.3,6.8-18.1,10.8c-13.1,9.1-24.7,19.7-35.3,31.3
		c-11,11.9-20.8,24.7-29.9,38c-8.6,12.6-16.5,25.7-23.7,39.1C162.3,252.6,158.3,260.5,154.6,268.6z"/>
	<path class="st4" d="M92.4,165.6c1.2,0,2.3,0,3.5,0c0,0.4-0.1,0.7-0.3,1c-1.2,2-2.5,4.1-3.8,6.1c-0.9,1.5-1.7,3-2.8,4.4
		c-0.4,0.5-0.2,1,0.2,1.4c1.3,1.2,2.3,2.6,3.4,4c0.3,0.4,0.7,0.8,1.2,1c2.1,1.2,4.2,2.6,5.8,4.4c0.2,0.2,0.4,0.4,0.7,0.4
		c0,0,0,0,0,0c0.6,1.3,1.7,2.3,2.3,3.6c1,1.8,1.7,3.7,2.1,5.7c0.5,2.3,0.7,4.6,0.3,6.9c-0.5,3.2-1.7,6.2-3.7,8.9
		c-2.3,3.1-5.2,5.4-8.8,7c-1.9,0.8-3.8,1.3-5.9,1.8c-2.2,0.5-4.4,0.3-6.6,0.3c-2.2,0-4.3-0.5-6.2-1.3c-2.1-0.8-4.4-1.5-6-3.1
		c-0.1-0.1-0.3-0.1-0.5-0.1l0,0c0-0.1-0.1-0.2-0.2-0.1l-0.1-0.1c0-0.1,0-0.2-0.1-0.1c-0.1-0.1-0.1-0.1-0.2-0.2
		c-0.9-1.1-1.9-2.1-3-2.9l0,0c0.1-0.3,0-0.5-0.2-0.7c-1.1-1.4-2.1-3-2.8-4.6c-0.2-0.4-0.3-1-1-1l-0.1-0.1c0.1-0.3-0.2-0.5-0.3-0.7
		c-1-1.2-2.1-2.4-3.1-3.6c-0.7-0.9-1.2-1.8-2.8-1.1c-1.1,0.5-1.6,0.6-1.4,1.8c0.2,1.2,0.2,2.4,0.2,3.6c0,0.8,0.3,1.4,1.2,1.6
		c0.1,0.1,0.1,0.1,0.2,0.2c-0.1,0.1,0,0.2,0.1,0.1c0.1,0.1,0.1,0.1,0.2,0.2c0.2,0.5,0.5,0.9,1.1,1.1c0.1,0,0.1,0.1,0.2,0.1
		c0,0.3,0.1,0.4,0.4,0.4c0,0.1,0.1,0.1,0.1,0.2c0,0.1,0,0.1,0.1,0.1l0.1,0.1c0.2,0.5,0.5,0.8,1.1,0.9c0,0,0,0.1,0.1,0.1
		c-0.1,0.3,0,0.4,0.3,0.4l0.1,0.1c1.1,1.5,2.4,2.8,3.9,3.9c0.1,0.1,0.3,0.1,0.5,0.1c1.7,0.3,3.4,0.9,5.2,1.1c0.3,0,0.6,0.1,0.6,0.5
		c0,0.3-0.3,0.4-0.5,0.5c-1.5,0.7-3,1.5-4.5,2.2c-0.6,0.3-1.1,0.3-1.7,0c-0.8-0.3-1.7-0.5-2.5-0.8c-1.4-0.4-2.8-0.5-3.9-1.7
		c-2.2-2.4-4.6-4.7-6.9-7c-0.4-0.4-0.6-0.8-0.6-1.3c0-1.7,0-3.5,0-5.2c0-0.6-0.2-1.3-1-1.2c-1.6,0.3-3.2,0.8-4.8,1.2
		c-0.4,0.1-0.8,0.6-1.1,0.1c-0.3-0.4-0.3-1,0.1-1.4c1-1.1,1.6-2.5,2.3-3.7c2.5-4.1,4.9-8.3,7.4-12.5c2.3-3.8,4.5-7.6,6.8-11.4
		c0.7-1.1,1.1-2.4,2.8-2.8c3.7-0.9,7.3-1.9,11-2.8c4-1,8.1-2,12.1-3.1c0.9-0.2,1.7-0.4,2.6-0.7c1.3-0.5,2.7-0.7,4-1.1
		C90.3,166.4,91.5,166.4,92.4,165.6z M81,219.4c4.7,0,8.3-0.8,11.5-2.7c3.8-2.2,6.5-5.2,8.1-9.3c1.6-4.2,1.4-8.3-0.4-12.3
		c-1.5-3.4-4.1-6-7.3-8c-0.9-0.6-1.9-0.9-3-0.6c-3.5,1-6.7,2.5-9.8,4.2c-3,1.7-5.8,3.7-8.4,6c-2.9,2.5-5.5,5.2-7.4,8.4
		c-0.3,0.4-0.7,0.9-0.5,1.5c0.3,0.9,0.6,1.9,1.1,2.7C68.6,215.7,74.3,218.9,81,219.4z M88.5,171c0-0.3-0.2-0.4-0.4-0.3
		c-0.4,0.1-0.8,0.1-1.3,0.2c-2.9,0.7-5.7,1.5-8.6,2.2c-2.3,0.6-4.7,1.2-7,1.8c-2.7,0.7-5.3,1.5-8,2.1c-1.6,0.4-2.7,1-3.6,2.5
		c-2.5,4.5-5.3,9-7.9,13.4c-1.5,2.4-2.9,4.9-4.4,7.3c-0.1,0.2-0.3,0.4-0.1,0.6c0.1,0.2,0.4,0.1,0.6,0c0.9-0.2,1.7-0.4,2.6-0.7
		c1.6-0.6,3.5-0.6,4.9-1.7c0.4-0.3,0.9-0.2,1.2,0.2c0.5,0.6,1,1.2,1.6,1.8c0.4,0.5,0.8,0.6,1.2-0.1c0.8-1.3,1.7-2.6,2.8-3.7
		c6.7-7,14.3-12.7,23.9-15.6c0.5-0.2,0.5-0.4,0.2-0.7c-0.5-0.5-0.9-1.1-1.4-1.5c-0.5-0.5-0.5-1-0.2-1.6c1.2-1.9,2.4-3.9,3.6-5.8
		C88.3,171.4,88.4,171.2,88.5,171z"/>
	<path class="st1" d="M67.5,218.2c0.2,0,0.4,0,0.5,0.1c1.6,1.7,3.9,2.3,6,3.1c2,0.8,4.1,1.3,6.2,1.3c2.2,0,4.4,0.1,6.6-0.3
		c2-0.4,4-0.9,5.9-1.8c3.6-1.6,6.5-3.9,8.8-7c2-2.7,3.2-5.7,3.7-8.9c0.4-2.3,0.2-4.6-0.3-6.9c-0.5-2-1.2-3.9-2.1-5.7
		c-0.7-1.3-1.8-2.3-2.3-3.6c1.3,0.7,1.8,1.9,2.5,3c2.2,3.4,3.1,7.2,3,11.1c-0.1,2.6-0.7,5.2-1.8,7.6c-1.9,4.2-5,7.3-9,9.8
		c-1.8,1.1-3.8,1.9-5.9,2.5c-2.5,0.6-5.1,1.1-7.7,1c-2.9-0.2-5.7-0.8-8.5-1.8c-1-0.4-1.9-0.8-2.7-1.3c-1-0.7-1.9-0.3-2.7,0.1
		c-1.7,0.9-3.4,1.8-5.2,2.6c-0.3,0.1-0.6,0.3-0.9,0.2c-1.5-0.8-3.3-0.9-4.9-1.5c-1.6-0.6-2.5-2-3.6-3.1c-2-1.9-3.8-3.8-5.7-5.8
		c-0.8-0.8-0.6-1.9-0.6-2.8c0-1.2-0.4-2.4-0.3-3.6c0-0.5-0.3-0.7-0.8-0.7c-1.2,0.1-2.3,0.6-3.5,0.8c-0.7,0.1-1.6,0.7-2,0.2
		c-0.5-0.6-0.5-1.7,0-2.4c0.8-1.1,1.4-2.3,2.1-3.5c2-3.3,4-6.7,6-10c2.5-4.4,5.2-8.7,7.8-13c0.5-0.9,1.1-1.8,1.6-2.6
		c0.2-0.4,0.6-0.7,1-0.8c2.5-0.6,5-1.2,7.4-1.9c2-0.6,4-1,5.9-1.6c1.5-0.5,3.2-0.8,4.7-1.2c2.1-0.6,4.2-1.1,6.3-1.6
		c1.9-0.5,3.7-1,5.5-1.5c1.3-0.4,2.6-0.8,4-0.9c-0.9,0.8-2.2,0.8-3.2,1.1c-1.3,0.4-2.7,0.6-4,1.1c-0.8,0.3-1.7,0.4-2.6,0.7
		c-4,1.1-8.1,2.1-12.1,3.1c-3.7,0.9-7.3,2-11,2.8c-1.7,0.4-2.1,1.7-2.8,2.8c-2.3,3.8-4.6,7.6-6.8,11.4c-2.5,4.2-4.8,8.4-7.4,12.5
		c-0.8,1.2-1.3,2.6-2.3,3.7c-0.4,0.4-0.3,1-0.1,1.4c0.3,0.5,0.7,0,1.1-0.1c1.6-0.4,3.2-0.9,4.8-1.2c0.8-0.2,1,0.5,1,1.2
		c0,1.7,0.1,3.5,0,5.2c0,0.6,0.2,1,0.6,1.3c2.3,2.3,4.7,4.6,6.9,7c1.1,1.2,2.6,1.3,3.9,1.7c0.9,0.2,1.7,0.5,2.5,0.8
		c0.6,0.3,1.2,0.2,1.7,0c1.5-0.7,3-1.5,4.5-2.2c0.2-0.1,0.5-0.2,0.5-0.5c0-0.3-0.4-0.4-0.6-0.5c-1.8-0.2-3.5-0.8-5.2-1.1
		c-0.2,0-0.4,0-0.5-0.1c-1.6-1.1-2.9-2.4-3.9-3.9c1.2,0.7,2,1.7,2.9,2.6c0.4,0.3,0.7,0.8,1.1,0.9c1.9,0.5,3.8,0.9,5.7,1.3
		C67.9,218.8,67.4,218.3,67.5,218.2z"/>
	<path class="st4" d="M97.4,170.3c0.5,0.2,0.9,0.3,1.3,0.6c3,1.7,6.2,2.8,9.2,4.4c1.7,1,3.4,2,5.1,3.1c0.5,0.3,0.8,0.7,0.2,1.4
		c-1.5,1.6-2.6,3.4-3.4,5.4c-0.1,0.2-0.1,0.5-0.5,0.5c-0.3,0-0.5-0.2-0.7-0.4c-2.6-3.9-5.6-7.6-8.7-11.1c-0.9-1-1.7-2.1-2.6-3.1
		c-0.1-0.2-0.3-0.3-0.2-0.5C97.2,170.3,97.3,170.3,97.4,170.3z"/>
	<path class="st1" d="M100.4,188.4c-0.3,0-0.5-0.2-0.7-0.4c-1.6-1.8-3.7-3.2-5.8-4.4c-0.5-0.3-0.8-0.6-1.2-1c-1.1-1.4-2.2-2.7-3.4-4
		c-0.4-0.4-0.6-0.9-0.2-1.4c1.1-1.4,1.9-2.9,2.8-4.4c1.3-2,2.5-4.1,3.8-6.1c0.2-0.3,0.4-0.6,0.3-1c0.3,0,0.9-0.2,0.4,0.5
		c-2.2,3.6-4.4,7.2-6.6,10.8c-0.4,0.6-0.3,1.2,0.2,1.7c1.2,1.3,2.3,2.6,3.4,3.9c0.5,0.7,1.3,0.9,1.9,1.4c1.8,1.2,3.6,2.4,5,4.1
		C100.4,188.1,100.4,188.3,100.4,188.4z"/>
	<path class="st1" d="M72.5,294c-0.4-0.2-0.7-0.5-0.7-0.9C72.1,293.3,72.5,293.5,72.5,294z"/>
	<path class="st1" d="M74.5,296.1c-0.5,0-0.6-0.2-0.5-0.6C74.2,295.7,74.4,295.8,74.5,296.1z"/>
	<path class="st1" d="M22.8,124.1c0-0.2,0.2-0.3,0.4-0.3C23.3,124.1,23,124.1,22.8,124.1z"/>
	<path class="st1" d="M73.9,295.5c-0.1-0.1-0.1-0.1-0.2-0.2C73.9,295.3,74,295.4,73.9,295.5z"/>
	<path class="st1" d="M22.6,124.2c0-0.1,0.1-0.1,0.2-0.1C22.8,124.2,22.7,124.2,22.6,124.2z"/>
	<path class="st1" d="M73.7,295.3c-0.1-0.1-0.1-0.1-0.2-0.2C73.7,295.1,73.7,295.2,73.7,295.3z"/>
	<path class="st1" d="M71.4,292.6c-0.1-0.1-0.1-0.1-0.2-0.2C71.2,292.5,71.3,292.6,71.4,292.6z"/>
	<path class="st1" d="M71.6,292.9c-0.1-0.1-0.1-0.1-0.2-0.2C71.5,292.7,71.6,292.7,71.6,292.9z"/>
	<path class="st1" d="M72.7,294.2c-0.1,0-0.2-0.1-0.2-0.2C72.6,294.1,72.7,294.1,72.7,294.2z"/>
	<path class="st1" d="M71.8,293.1c-0.1-0.1-0.1-0.1-0.2-0.2C71.7,292.9,71.8,292.9,71.8,293.1z"/>
	<path class="st3" d="M184.3,94.4c0.3-4.5,0.7-8.9,1-13.4c0.1-1.1,0.1-2.2,0.1-3.3c0-1,0.5-1.5,1.5-1.8c3.3-1,6.5-2.1,9.7-3.2
		c3.3-1.1,6.7-2.2,10-3.3c3.3-1.1,6.6-2.2,9.9-3.3c3.8-1.3,7.6-2.6,11.4-3.8c2.2-0.7,4.4-1.4,6.6-2.2c0.2-0.1,0.5-0.3,0.7-0.1
		c0.3,0.2,0,0.5-0.1,0.7c-0.8,2.1-1.5,4.2-2.3,6.2c-1.2,3.1-2.4,6.2-3.6,9.3c-1.6,4.2-3.3,8.3-4.8,12.5c-1.2,3.4-2.6,6.7-3.8,10.1
		c-0.2,0.6-0.6,0.8-1.2,0.8c-3.4-0.3-6.8-0.7-10.2-1c-6.4-0.5-12.8-1-19.3-1.2c-1.6,0-3.2-0.2-4.8-0.3c-0.7,0-1-0.2-0.9-0.9
		C184.3,95.6,184.3,95,184.3,94.4C184.3,94.4,184.3,94.4,184.3,94.4z"/>
	<path class="st3" d="M140.2,97.2c-2.7,0-5.4-0.1-8.2,0c-5,0.2-9.9,0.5-14.9,0.9c-2.8,0.3-5.7,0.3-8.5,0.8c-0.8,0.1-1.2-0.2-1.4-0.9
		c-1-2.6-1.9-5.2-2.9-7.7c-1.6-4.1-3.1-8.2-4.7-12.3c-1.5-3.9-2.9-7.8-4.4-11.7c-0.7-1.8-1.4-3.7-2.1-5.5C93,60.6,92.8,60.2,93,60
		c0.3-0.4,0.6,0,0.8,0.1c3.5,1.1,7,2.3,10.5,3.5c5.3,1.8,10.7,3.5,16,5.3c5.3,1.8,10.7,3.6,16,5.4c1.7,0.6,3.4,1.1,5.2,1.7
		c0.7,0.2,1.1,0.6,1.1,1.4c0.2,4,0.5,8,0.8,12c0.2,2.2,0.3,4.4,0.5,6.6c0.1,0.7-0.2,1-0.9,1c-1,0-1.9,0-2.9,0
		C140.2,97,140.2,97.1,140.2,97.2z"/>
	<path class="st3" d="M159.4,96.6c-1.9,0.1-4.7-0.2-7.4,0.1c-0.7,0.1-0.7-0.3-0.7-0.7c-0.3-3-0.5-5.9-0.8-8.9
		c-0.3-3.8-0.6-7.6-1-11.4c-0.1-0.8,0.5-0.9,0.9-1c1.3-0.4,2.6-0.8,3.9-1c5.4-0.9,10.9-1.2,16.3-0.4c2.3,0.3,4.5,0.6,6.7,1.3
		c0.9,0.3,1.3,0.5,1.2,1.6c-0.6,5.7-1,11.3-1.5,17c-0.1,1-0.3,2-0.3,3c-0.1,0.7-0.4,0.8-1.1,0.8C170.6,96.6,165.4,96.5,159.4,96.6z"
		/>
	<path class="st3" d="M221.6,56.2c-1.4,1-3,1.3-4.6,1.9c-3.4,1.2-6.8,2.2-10.2,3.3c-5,1.6-10,3.3-15,4.9c-2.5,0.8-4.9,1.7-7.4,2.3
		c-0.7,0.1-1.2,0.2-1.9-0.2c-5-2.6-10.4-3-15.9-3.2c-0.7,0-1.6,0.3-1.9-0.2c-0.4-0.5,0.5-1.1,0.9-1.6c2.6-3.7,6.2-6.3,10.3-8.3
		c6.1-2.9,12.7-4,19.5-3.7c4.9,0.2,9.6,1.1,14.3,2.3c2.7,0.7,5.4,1.8,8.3,2.1C219.2,56,220.4,56.1,221.6,56.2z"/>
	<path class="st3" d="M106.4,56.3c0.6-0.3,1.1-0.2,1.6-0.2c3.1,0,6.1-0.9,9-1.8c2.2-0.7,4.5-1.3,6.7-1.7c3.7-0.7,7.4-1.2,11.2-1.2
		c6.8,0,13.4,1.4,19.3,4.7c3.7,2.1,6.9,4.8,9.2,8.3c0.4,0.6,0.3,0.9-0.5,0.8c-2.8,0-5.5,0.1-8.2,0.5c-2.8,0.4-5.6,1-8.2,2.3
		c-1.2,0.6-2.3,0.7-3.5,0.3c-3.5-1.1-7-2.3-10.4-3.4c-3.5-1.1-6.9-2.3-10.4-3.4c-3.8-1.3-7.6-2.5-11.4-3.8
		C109.3,57.4,107.8,57,106.4,56.3z"/>
	<path class="st3" d="M296.6,54.5c0,0.3-0.2,0.4-0.3,0.6c-0.8,0.7-1.6,1.5-2.4,2.1c-0.6,0.4-0.7,0.9-0.6,1.6
		c0.3,1.1,0.4,2.2,0.6,3.3c0,0.2,0.1,0.6-0.2,0.7c-0.3,0.1-0.4-0.2-0.7-0.3c-1.1-0.5-2.2-1.1-3.3-1.6c-0.4-0.2-0.8-0.2-1.2,0
		c-1.1,0.6-2.3,1.1-3.4,1.7c-0.2,0.1-0.5,0.3-0.7,0.1c-0.2-0.2-0.1-0.4-0.1-0.7c0.2-1.2,0.4-2.4,0.7-3.6c0.1-0.6-0.3-0.9-0.6-1.3
		c-0.8-0.7-1.6-1.4-2.4-2.1c-0.2-0.2-0.5-0.4-0.4-0.8c0.1-0.3,0.5-0.3,0.7-0.3c1.2,0,2.4-0.4,3.6-0.5c0.5,0,0.8-0.2,1-0.7
		c0.5-1.1,1.1-2.1,1.7-3.2c0.1-0.3,0.2-0.6,0.6-0.6c0.4,0,0.3,0.4,0.4,0.6c0.5,1.1,1.1,2.1,1.6,3.2c0.2,0.4,0.6,0.6,1,0.6
		c1.2,0.1,2.4,0.3,3.6,0.5C296.2,54.1,296.6,54.1,296.6,54.5z"/>
	<path class="st3" d="M221.6,49.2c0.2-1.2,0.4-2.4,0.6-3.5c0.1-0.6-0.1-1.1-0.6-1.5c-0.8-0.7-1.6-1.5-2.4-2.2
		c-0.2-0.2-0.5-0.3-0.4-0.6c0.1-0.2,0.4-0.3,0.6-0.3c1.1-0.1,2.2-0.3,3.3-0.4c0.8-0.1,1.3-0.4,1.6-1.2c0.3-1,0.9-1.8,1.4-2.7
		c0.1-0.2,0.1-0.6,0.5-0.5c0.3,0,0.5,0.3,0.6,0.6c0.5,0.9,1,1.9,1.4,2.8c0.4,0.8,1,1.1,1.8,1.2c1,0.1,2,0.2,3,0.4
		c0.3,0,0.6,0,0.7,0.3c0.1,0.3-0.2,0.5-0.4,0.6c-0.8,0.8-1.7,1.6-2.6,2.3c-0.5,0.4-0.6,0.8-0.4,1.4c0.4,1.1,0.3,2.3,0.6,3.4
		c0.2,0.6-0.1,0.8-0.7,0.5c-0.9-0.5-1.9-0.8-2.8-1.4c-0.9-0.5-1.7-0.6-2.6,0c-0.9,0.5-1.8,0.9-2.7,1.4c-0.2,0.1-0.4,0.4-0.7,0.2
		C221.5,49.6,221.5,49.3,221.6,49.2z"/>
	<path class="st3" d="M33.1,61.1c0.4-1,0.4-2.2,0.7-3.3c0.1-0.7-0.1-1.2-0.6-1.6c-0.8-0.7-1.6-1.4-2.3-2.1c-0.2-0.2-0.5-0.4-0.4-0.7
		c0.1-0.3,0.5-0.3,0.7-0.4c1.1-0.2,2.3-0.3,3.4-0.5c0.6-0.1,1.1-0.3,1.4-1c0.4-1,1-2,1.5-3c0.1-0.2,0.2-0.5,0.5-0.4
		c0.3,0,0.4,0.2,0.5,0.5c0.5,1,1.1,1.9,1.5,2.9c0.3,0.6,0.6,0.9,1.3,1c1.1,0.2,2.3,0.3,3.4,0.4c0.3,0,0.7,0,0.8,0.4
		c0.1,0.4-0.2,0.5-0.5,0.7c-0.8,0.7-1.6,1.5-2.4,2.2c-0.5,0.4-0.6,0.9-0.5,1.5c0.2,1.1,0.5,2.3,0.7,3.4c0.1,0.6,0.1,1-0.7,0.5
		c-1-0.6-2.1-1-3.1-1.6c-0.7-0.4-1.3-0.3-2,0c-1,0.5-2,1-3,1.5C33.1,62.2,33,61.9,33.1,61.1z"/>
	<path class="st3" d="M95.8,49.2c0.3-1.4,0.5-2.7,0.7-4c0.1-0.7,0.1-1.2-0.5-1.6c-0.9-0.8-1.7-1.6-2.6-2.4c-0.2-0.2-0.4-0.4-0.3-0.6
		c0.1-0.2,0.4-0.2,0.7-0.2c1.1,0,2.1-0.3,3.2-0.4c1-0.1,1.5-0.6,1.9-1.4c0.4-0.9,0.8-1.7,1.3-2.6c0.1-0.2,0.2-0.6,0.6-0.6
		c0.4,0,0.3,0.4,0.4,0.6c0.5,1,1,2.1,1.6,3.1c0.2,0.4,0.5,0.7,1.1,0.7c1.2,0.1,2.4,0.4,3.6,0.5c0.3,0,0.6-0.1,0.7,0.3
		c0.1,0.3-0.2,0.5-0.4,0.7c-0.8,0.8-1.6,1.6-2.5,2.4c-0.4,0.4-0.5,0.7-0.5,1.3c0.1,1.1,0.4,2.2,0.6,3.3c0,0.3,0.2,0.6-0.2,0.8
		c-0.3,0.2-0.5-0.1-0.8-0.2c-0.5-0.2-1-0.5-1.4-0.8c-1.7-1.2-3.3-1.1-4.9,0.1C97.5,48.6,96.8,48.9,95.8,49.2z"/>
	<path class="st3" d="M158.8,45.3c0.2-1,0.1-1.9,0.5-2.7c0.4-1,0.2-1.8-0.8-2.5c-0.8-0.6-1.5-1.4-2.3-2.1c-0.1-0.1-0.3-0.3-0.3-0.5
		c0-0.2,0.3-0.2,0.5-0.2c1.2-0.2,2.3-0.4,3.5-0.5c0.9,0,1.2-0.5,1.6-1.1c0.5-1,1.1-2,1.6-3c0.3-0.7,0.6-0.5,0.8,0
		c0.6,1.1,1.2,2.2,1.8,3.4c0.2,0.5,0.5,0.7,1,0.7c1.2,0.1,2.4,0.3,3.6,0.5c0.3,0,0.7-0.1,0.8,0.2c0.1,0.3-0.2,0.5-0.4,0.8
		c-0.9,0.8-1.7,1.6-2.6,2.3c-0.5,0.4-0.7,0.9-0.4,1.5c0.4,1.1,0.3,2.2,0.6,3.3c0,0.2,0.1,0.4-0.1,0.5c-0.3,0.2-0.5,0.1-0.8-0.1
		c-1.1-0.6-2.1-1.1-3.2-1.6c-0.5-0.3-0.8-0.3-1.3,0c-1.1,0.6-2.1,1.1-3.2,1.6c-0.2,0.1-0.4,0.3-0.7,0.1
		C158.7,45.6,158.8,45.4,158.8,45.3z"/>
	<path class="st1" d="M94.4,79.6C93.7,80,93,80,92.2,80.1c-3,0.4-6.1,0.7-9.1,1.2c-3.6,0.6-7.3,1.1-10.9,1.9
		c-2.1,0.5-4.3,0.8-6.4,1.2c-1.2,0.2-2.4,0.6-3.6,0.8c-0.5,0.1-0.9,0.2-1.4,0.1c1.2-0.8,2.7-0.7,4-1.1c2.3-0.6,4.7-0.9,7.1-1.4
		c1.1-0.2,2.2-0.3,3.3-0.6c3.1-0.6,6.3-1,9.4-1.5c1.8-0.3,3.7-0.7,5.6-0.7c1.1,0,2-0.5,3.1-0.5C93.7,79.5,94.1,79.3,94.4,79.6z"/>
	<path class="st1" d="M97,100.1c1.5-0.5,3.1-0.6,4.7-0.6c0.9,0,1-0.3,0.7-1.1c-1.2-3.2-2.4-6.4-3.6-9.6c-1.1-2.9-2.2-5.7-3.2-8.6
		c-0.1-0.4-0.5-0.4-0.7-0.7c0.5-0.3,0.8-0.1,1,0.4c1.2,3.3,2.5,6.7,3.8,10c1.1,2.9,2.2,5.7,3.3,8.6c0.4,0.9,0,1.2-0.9,1.2
		c-1.4,0-2.7,0.6-4.1,0.4C97.6,100.2,97.3,100.3,97,100.1z"/>
	<path class="st1" d="M60.4,85.3c-1,0.8-2.3,0.6-3.5,1c-1.7,0.5-3.5,0.9-5.2,1.4c-2.2,0.6-4.4,1.2-6.5,1.8c-0.8,0.2-1.6,0.5-2.4,0.8
		c-0.3,0.1-0.6,0.2-0.9,0.1c0.1-0.3,0.3-0.4,0.5-0.4c1.9-0.6,3.9-1.1,5.8-1.7c1.6-0.4,3.1-0.9,4.7-1.3c1.8-0.5,3.7-1,5.6-1.3
		C59.1,85.5,59.7,84.9,60.4,85.3z"/>
	<path class="st1" d="M41.5,90.4c-0.4,0.7-1.2,0.6-1.9,0.8c-5.2,1.7-10.3,3.9-15.3,6.2c0,0,0,0-0.1-0.1c0.2-0.6,0.8-0.7,1.2-0.9
		c5-2.4,10.2-4.4,15.5-6.2C41.2,90.3,41.4,90.2,41.5,90.4z"/>
	<path class="st1" d="M64.7,105.2c1.2-0.8,2.7-0.7,4.1-1c2.7-0.6,5.4-1.1,8.2-1.5c1.4-0.2,2.8-0.8,4.3-0.5c-0.4,0.4-0.9,0.5-1.4,0.5
		c-3.4,0.5-6.7,1-10,1.7c-1.2,0.2-2.5,0.4-3.6,0.8C65.7,105.3,65.2,105.4,64.7,105.2z"/>
	<path class="st1" d="M48.2,109.2c0.7-0.8,1.8-0.7,2.6-0.9c2.7-0.8,5.4-1.5,8.1-2.1c1.6-0.3,3.1-0.7,4.7-1c0.2-0.1,0.5,0,0.7,0
		c-0.2,0.4-0.5,0.4-0.9,0.5c-3,0.6-6,1.3-8.9,2c-2,0.5-4,0.9-5.9,1.6C48.5,109.4,48.3,109.4,48.2,109.2z"/>
	<path class="st1" d="M81.8,102.1c0.6-0.4,1.3-0.5,1.9-0.5c3.8-0.5,7.5-1,11.3-1.5c0.5-0.1,1.1-0.2,1.6,0c-1.1,0.7-2.4,0.4-3.6,0.6
		c-3.1,0.6-6.4,0.8-9.5,1.4C83,102.3,82.4,102.4,81.8,102.1z"/>
	<path class="st0" d="M298.3,116.9c0.3-0.1,0.5-0.1,0.6,0.2C298.6,117.2,298.4,117.2,298.3,116.9z"/>
	<path class="st1" d="M303.4,98.5c-0.2,0.1-0.4,0.1-0.5-0.1C303.2,98.4,303.3,98.4,303.4,98.5z"/>
	<path class="st0" d="M298.9,117.2c0.2,0,0.2,0,0.3,0.2C299,117.4,298.9,117.3,298.9,117.2z"/>
	<path class="st0" d="M298,116.9c0.1-0.1,0.2-0.1,0.3,0.1C298.1,117,298,117,298,116.9z"/>
	<path class="st0" d="M297.1,116.5c0.1-0.1,0.2-0.1,0.3,0.1C297.3,116.6,297.2,116.6,297.1,116.5z"/>
	<path class="st0" d="M293.1,114.9c0.1-0.1,0.2-0.1,0.2,0C293.2,115,293.2,115,293.1,114.9z"/>
	<path class="st0" d="M300.1,117.7c0.1,0,0.2,0,0.2,0.1C300.1,117.9,300,117.8,300.1,117.7z"/>
	<path class="st0" d="M302.6,118.9c0.1-0.1,0.2,0,0.2,0.1C302.7,119.1,302.6,119.1,302.6,118.9z"/>
	<path class="st5" d="M154.6,268.6c3.7-8.2,7.6-16,11.8-23.7c7.2-13.4,15.1-26.4,23.7-39.1c9.1-13.3,18.9-26,29.9-38
		c10.6-11.6,22.2-22.2,35.3-31.3c5.8-4,11.8-7.6,18.1-10.8c0.2-0.1,0.4-0.2,0.8-0.4c-0.3,2.8-0.5,5.5-0.8,8.2
		c-0.7,6.9-1.7,13.7-2.3,20.6c-0.5,6-0.8,11.9-0.4,17.9c0.5,9.4,2.7,18.5,6.6,27.2c0.4,0.9,0.3,1.2-0.7,1.4
		c-5.4,1.3-10.2,4-14.8,6.8c-8.5,5.2-16.2,11.5-23.5,18c-19.2,17.2-36.2,36.1-52.1,56c-8.3,10.4-16.2,21-23.3,32.2
		c-1.4,2.2-2.8,4.5-4.1,6.8c-0.5,0.9-0.7,0.8-1.3,0.1c-7.2-8.5-14.9-16.7-23-24.5c-9-8.6-18.4-16.8-28.5-24.3
		c-8.8-6.6-18.1-12.6-28-17.5c-3.1-1.5-6.3-2.9-9.6-4.1c-0.3-0.1-0.6-0.2-1.2-0.4c0.8-0.5,1.4-0.9,2.1-1.2
		c17.8-10.3,35.6-20.6,53.3-30.9c0.9-0.5,1.7-1,2.6-1.5c0.6-0.4,0.9-0.4,1.3,0.3c5.8,10.7,11.6,21.4,17.3,32.1
		c3.5,6.4,6.9,12.9,10.4,19.3C154.4,268.2,154.5,268.3,154.6,268.6z"/>
	<path class="st5" d="M81,219.4c-6.7-0.4-12.4-3.7-16.1-10c-0.5-0.8-0.8-1.8-1.1-2.7c-0.2-0.6,0.3-1.1,0.5-1.5
		c1.9-3.2,4.5-6,7.4-8.4c2.6-2.2,5.4-4.2,8.4-6c3.1-1.8,6.3-3.3,9.8-4.2c1.2-0.3,2.1,0,3,0.6c3.2,2,5.8,4.6,7.3,8
		c1.7,4,2,8.1,0.4,12.3c-1.5,4-4.3,7.1-8.1,9.3C89.3,218.6,85.7,219.4,81,219.4z"/>
	<path class="st5" d="M88.5,171c-0.1,0.2-0.2,0.4-0.3,0.5c-1.2,1.9-2.4,3.9-3.6,5.8c-0.4,0.6-0.3,1.1,0.2,1.6c0.5,0.5,0.9,1,1.4,1.5
		c0.3,0.4,0.3,0.6-0.2,0.7c-9.6,2.9-17.3,8.6-23.9,15.6c-1.1,1.1-2,2.4-2.8,3.7c-0.4,0.7-0.7,0.6-1.2,0.1c-0.5-0.6-1-1.2-1.6-1.8
		c-0.4-0.4-0.8-0.5-1.2-0.2c-1.4,1.1-3.3,1.1-4.9,1.7c-0.8,0.3-1.7,0.5-2.6,0.7c-0.2,0-0.5,0.2-0.6,0c-0.1-0.2,0-0.4,0.1-0.6
		c1.5-2.4,2.9-4.9,4.4-7.3c2.7-4.5,5.4-8.9,7.9-13.4c0.8-1.5,1.9-2.1,3.6-2.5c2.7-0.6,5.4-1.4,8-2.1c2.3-0.6,4.7-1.2,7-1.8
		c2.9-0.7,5.7-1.5,8.6-2.2c0.4-0.1,0.8-0.2,1.3-0.2C88.3,170.7,88.5,170.7,88.5,171z"/>
	<path class="st3" d="M67.5,218.2c-0.1,0.2,0.4,0.6-0.3,0.5c-1.9-0.4-3.8-0.8-5.7-1.3c-0.4-0.1-0.8-0.6-1.1-0.9
		c-1-0.9-1.7-2-2.9-2.6c0,0-0.1-0.1-0.1-0.1c0-0.2-0.1-0.3-0.3-0.4c0,0,0-0.1-0.1-0.1c-0.2-0.5-0.5-0.8-1.1-0.9c0,0-0.1-0.1-0.1-0.1
		c0,0-0.1-0.1-0.1-0.1c0-0.1-0.1-0.1-0.1-0.2c0-0.3-0.1-0.4-0.4-0.4c-0.1,0-0.1-0.1-0.2-0.1c-0.2-0.5-0.4-1-1.1-1.1
		c-0.1-0.1-0.1-0.1-0.2-0.2c0,0,0-0.1,0-0.1l-0.1,0c-0.1-0.1-0.1-0.1-0.2-0.2c-1-0.9-0.8-2-0.8-3.2c0-0.6,0-1.2-0.1-1.8
		c-0.2-0.6-0.1-1.3,0.6-1.5c0.8-0.3,1.6-0.6,2.3,0.2c0.5,0.6,1.1,1.3,1.6,1.9c0.9,0.9,1.5,2.1,2.7,2.8c0,0,0.1,0.1,0.1,0.1
		c0.5,1,1,2.1,1.6,3c0.7,1.1,1.3,2.4,2.4,3.2c0,0,0,0,0,0c0.8,1.2,1.7,2.2,3,2.9c0.1,0.1,0.1,0.1,0.2,0.2c0,0,0.1,0.1,0.1,0.1
		c0,0,0.1,0.1,0.1,0.1C67.3,218.1,67.3,218.2,67.5,218.2L67.5,218.2z"/>
	<path class="st1" d="M59.7,208.4c-1.1-0.7-1.8-1.9-2.7-2.8c-0.6-0.6-1.1-1.2-1.6-1.9c-0.7-0.8-1.5-0.5-2.3-0.2
		c-0.8,0.3-0.8,0.9-0.6,1.5c0.2,0.6,0.1,1.2,0.1,1.8c0,1.1-0.2,2.3,0.8,3.2c-0.9-0.2-1.2-0.8-1.2-1.6c0-1.2,0-2.4-0.2-3.6
		c-0.2-1.2,0.3-1.3,1.4-1.8c1.6-0.7,2.1,0.2,2.8,1.1c1,1.2,2.1,2.4,3.1,3.6C59.5,207.9,59.8,208,59.7,208.4z"/>
	<path class="st1" d="M63.8,214.7c-1.1-0.9-1.7-2.1-2.4-3.2c-0.6-1-1.1-2-1.6-3c0.7,0,0.9,0.6,1,1c0.7,1.7,1.6,3.2,2.8,4.6
		C63.7,214.2,63.9,214.4,63.8,214.7z"/>
	<path class="st1" d="M66.9,217.6c-1.3-0.7-2.3-1.7-3-2.9C65,215.5,65.9,216.6,66.9,217.6z"/>
	<path class="st1" d="M54,210.4c0.7,0.1,0.9,0.6,1.1,1.1C54.5,211.4,54.2,210.9,54,210.4z"/>
	<path class="st1" d="M56,212.4c0.6,0.1,0.9,0.5,1.1,0.9C56.5,213.2,56.2,212.8,56,212.4z"/>
	<path class="st1" d="M55.2,211.7c0.3,0,0.4,0.1,0.4,0.4C55.4,212,55.2,211.9,55.2,211.7z"/>
	<path class="st1" d="M57.1,213.4c0.2,0,0.3,0.1,0.3,0.4C57.1,213.8,57,213.7,57.1,213.4z"/>
	<path class="st1" d="M55.8,212.2c0,0,0.1,0.1,0.1,0.1C55.8,212.4,55.7,212.3,55.8,212.2z"/>
	<path class="st1" d="M67.2,217.9c0,0-0.1-0.1-0.1-0.1C67.2,217.8,67.3,217.8,67.2,217.9z"/>
	<path class="st1" d="M67.5,218.1c-0.1,0-0.2,0-0.2-0.1C67.4,218,67.5,218,67.5,218.1z"/>
	<path class="st1" d="M53.7,210.2L53.7,210.2c0.1,0,0.1,0.1,0.1,0.1C53.6,210.3,53.6,210.3,53.7,210.2z"/>
</g>
</svg>
